<svg id="Layer_1" data-name="Layer 1" xmlns="http://www.w3.org/2000/svg" viewBox="0 0 694 345"><defs><style>.cls-1,.cls-3,.cls-4{fill:none;}.cls-1,.cls-2,.cls-3,.cls-4,.cls-5,.cls-6{stroke:#647eb2;stroke-miterlimit:10;}.cls-1,.cls-2,.cls-5{stroke-width:2px;}.cls-2,.cls-5,.cls-6{fill:#fff;}.cls-3{font-size:23.58px;}.cls-3,.cls-4{font-family:VNI-Tekon-Italic, VNI-Tekon;font-style:italic;}.cls-4{font-size:18.3px;}.cls-5{opacity:0.1;}.cls-6{stroke-width:0.75px;}</style></defs><title>Route 5 - Market-01</title><line class="cls-1" y1="309.6" x2="694" y2="309.6"/><line class="cls-1" x1="7.53" y1="328.6" x2="93.94" y2="328.6"/><line class="cls-1" x1="119.15" y1="328.6" x2="160.96" y2="328.6"/><line class="cls-1" x1="188.15" y1="328.6" x2="240.96" y2="328.6"/><line class="cls-1" x1="260" y1="328.6" x2="312.81" y2="328.6"/><line class="cls-1" x1="331.85" y1="328.6" x2="384.67" y2="328.6"/><line class="cls-1" x1="403.7" y1="328.6" x2="456.52" y2="328.6"/><line class="cls-1" x1="475.55" y1="328.6" x2="528.37" y2="328.6"/><line class="cls-1" x1="547.4" y1="328.6" x2="600.22" y2="328.6"/><line class="cls-1" x1="619.25" y1="328.6" x2="672.07" y2="328.6"/><rect class="cls-2" x="335.69" y="175.31" width="9.69" height="10.58"/><path class="cls-2" d="M350.24,171.3a6.14,6.14,0,0,1-6.14,6.14h-7.06a6.13,6.13,0,0,1-6.13-6.14V156.41a6.14,6.14,0,0,1,6.13-6.14h7.06a6.14,6.14,0,0,1,6.14,6.14Z"/><circle class="cls-2" cx="329.85" cy="164.67" r="1.6"/><path class="cls-2" d="M353,164.67a1.6,1.6,0,1,1-1.59-1.59A1.59,1.59,0,0,1,353,164.67Z"/><polygon class="cls-2" points="336.12 301.11 326.6 301.11 326.6 224.05 341.29 224.05 336.12 301.11"/><polygon class="cls-2" points="355.05 301.11 345.52 301.11 339.65 224.05 355.05 224.05 355.05 301.11"/><rect class="cls-2" x="325.61" y="181.53" width="30.25" height="46.75"/><path class="cls-2" d="M367.41,307.25h-7l-8.13-.78v.78h-6.16v-6.15l7.82.08s10.64-1.12,12.83.77c1.42,1.22.61,3.86.61,3.86Z"/><path class="cls-2" d="M314.41,307.25h7l8.13-.78v.78h6.15v-6.15l-7.82.08s-10.64-1.12-12.83.77c-1.43,1.22-.61,3.86-.61,3.86Z"/><polygon class="cls-2" points="314.41 305.98 314.41 307.25 321.39 307.25 329.52 306.47 329.52 307.25 335.67 307.25 335.67 305.98 314.41 305.98"/><path class="cls-2" d="M386.76,153.36l-.91,3.85,4,.89.9-3.8a2.05,2.05,0,0,0-4-.94Z"/><path class="cls-2" d="M356.47,188.55a3.6,3.6,0,0,1-.88-7.05s.67-.14.89-.15c4.6-.6,25.59-4.47,29.33-25.21a16,16,0,0,1,4.28,1c-4,30.58-33.46,31.36-33.46,31.36h0Z"/><path class="cls-2" d="M295.58,153.51l.91,3.85-4,.9-.9-3.8a2.05,2.05,0,0,1,4-.95Z"/><path class="cls-2" d="M325.87,188.71a3.6,3.6,0,0,0,.89-7s-.68-.14-.9-.15c-4.6-.6-25.59-4.47-29.32-25.21a15.79,15.79,0,0,0-4.28,1c3.94,30.58,33.46,31.36,33.46,31.36h.16Z"/><path class="cls-2" d="M344.58,148c-4.38-.53-9.48,2.11-12.4-1.28-2.18,3.19-.13,6.71,3.18,8.19s14-1.67,14.87,3.18C350.7,153.05,349,148.51,344.58,148Z"/><ellipse class="cls-2" cx="331.66" cy="154.34" rx="3.42" ry="2.35" transform="translate(50.64 388.52) rotate(-64.76)"/><rect class="cls-2" x="330.29" y="189.64" width="21.13" height="26.45"/><rect class="cls-2" x="330.29" y="181.53" width="0.49" height="8.73"/><rect class="cls-2" x="350.94" y="181.52" width="0.49" height="8.73"/><rect class="cls-2" x="284.93" y="116.46" width="1.28" height="96.49"/><rect class="cls-2" x="397.22" y="116.46" width="1.28" height="96.49"/><circle class="cls-2" cx="291.24" cy="135.58" r="6.31"/><circle class="cls-2" cx="303.91" cy="135.58" r="6.31"/><circle class="cls-2" cx="316.52" cy="135.58" r="6.31"/><ellipse class="cls-2" cx="329.13" cy="135.58" rx="6.3" ry="6.31"/><circle class="cls-2" cx="341.74" cy="135.58" r="6.31"/><circle class="cls-2" cx="354.35" cy="135.58" r="6.31"/><circle class="cls-2" cx="366.97" cy="135.58" r="6.31"/><circle class="cls-2" cx="379.58" cy="135.58" r="6.31"/><circle class="cls-2" cx="392.19" cy="135.58" r="6.31"/><rect class="cls-2" x="284.93" y="116.46" width="113.57" height="19.1"/><rect class="cls-2" x="285.57" y="117.16" width="11.68" height="17.7"/><rect class="cls-2" x="298.17" y="117.16" width="11.67" height="17.7"/><rect class="cls-2" x="310.76" y="117.16" width="11.68" height="17.7"/><rect class="cls-2" x="323.36" y="117.16" width="11.67" height="17.7"/><rect class="cls-2" x="335.96" y="117.16" width="11.67" height="17.7"/><rect class="cls-2" x="348.55" y="117.16" width="11.68" height="17.7"/><rect class="cls-2" x="361.15" y="117.16" width="11.67" height="17.7"/><rect class="cls-2" x="373.75" y="117.16" width="11.67" height="17.7"/><rect class="cls-2" x="386.35" y="117.16" width="11.67" height="17.7"/><polygon class="cls-2" points="303.31 276.88 301.5 277.67 277.77 223.21 279.58 222.43 303.31 276.88"/><path class="cls-2" d="M398.49,278.18a1.86,1.86,0,0,1-1.86,1.86H286.79a1.86,1.86,0,0,1-1.87-1.86h0a1.86,1.86,0,0,1,1.87-1.87H396.63a1.86,1.86,0,0,1,1.86,1.87Z"/><path class="cls-2" d="M201.8,308.22a30.54,30.54,0,1,1,30.55-30.55A30.58,30.58,0,0,1,201.8,308.22Zm0-58.92a28.38,28.38,0,1,0,28.39,28.38A28.41,28.41,0,0,0,201.8,249.29Z"/><path class="cls-2" d="M256.1,280H197.79l29.15-50.49Zm-54.56-2.16h50.81l-25.41-44Z"/><path class="cls-2" d="M253.69,280l-29.15-50.49h58.31Zm0-4.32,25.4-44H228.28Z"/><polygon class="cls-2" points="202.81 279.02 200.99 279.8 185.63 244.54 187.44 243.75 202.81 279.02"/><polygon class="cls-2" points="279.71 223.64 277.77 223.25 280.02 212.02 281.96 212.41 279.71 223.64"/><rect class="cls-2" x="234.78" y="219.97" width="1.98" height="53.97" transform="translate(-91.4 149.32) rotate(-29.71)"/><polygon class="cls-2" points="236.84 225.04 217.86 225.04 216.42 218.29 236.84 220.37 236.84 225.04"/><ellipse class="cls-2" cx="253.46" cy="278.12" rx="6.94" ry="6.93"/><rect class="cls-2" x="176.24" y="242.56" width="44.31" height="2.39"/><polygon class="cls-2" points="210.58 242.56 171.26 242.56 167.09 213.96 214.75 213.96 210.58 242.56"/><path class="cls-2" d="M205.31,278.12a4.24,4.24,0,1,1-4.23-4.24A4.23,4.23,0,0,1,205.31,278.12Z"/><rect class="cls-2" x="175.49" y="221.67" width="29.82" height="13.6"/><rect class="cls-2" x="284.92" y="216.27" width="113.57" height="60.04"/><rect class="cls-2" x="284.92" y="210.94" width="113.57" height="5.33"/><rect class="cls-2" x="284.92" y="216.27" width="113.57" height="1.83"/><path class="cls-2" d="M341.16,307.9a30.54,30.54,0,1,1,30.55-30.55A30.57,30.57,0,0,1,341.16,307.9Zm0-58.93a28.38,28.38,0,1,0,28.39,28.38A28.41,28.41,0,0,0,341.16,249Z"/><path class="cls-2" d="M345.41,277.36a4.24,4.24,0,1,1-4.23-4.24A4.24,4.24,0,0,1,345.41,277.36Z"/><path class="cls-2" d="M340.86,175.11h0a5.38,5.38,0,0,1-5.38-5.38v-.14h10.75v.14A5.38,5.38,0,0,1,340.86,175.11Z"/><polygon class="cls-2" points="134.58 298 131.94 298.7 89.16 136.08 91.8 135.38 134.58 298"/><path class="cls-2" d="M150.08,119a8.84,8.84,0,0,1,10.83,6.26,70.75,70.75,0,1,0-136.72,36.5l.06,0a8.84,8.84,0,0,1,17.08-4.56,8.84,8.84,0,1,1,17.08-4.56A8.84,8.84,0,0,1,75.49,148a8.84,8.84,0,1,1,17.08-4.56,8.84,8.84,0,1,1,17.08-4.56,8.84,8.84,0,1,1,17.08-4.56,8.84,8.84,0,1,1,17.08-4.56A8.85,8.85,0,0,1,150.08,119Z"/><rect class="cls-2" x="80.83" y="250.85" width="62.45" height="48.83"/><rect class="cls-2" x="80.83" y="299.67" width="2.28" height="8.15"/><rect class="cls-2" x="141" y="299.67" width="2.28" height="8.15"/><rect class="cls-2" x="80.83" y="248.21" width="62.45" height="2.64"/><rect class="cls-2" x="80.83" y="297.04" width="62.45" height="2.64"/><polygon class="cls-2" points="135.83 248.21 89.93 248.21 85.06 214.83 140.69 214.83 135.83 248.21"/><rect class="cls-2" x="95.48" y="223.83" width="34.8" height="15.87"/><path class="cls-1" d="M334.65,161.39s.7-.48,3.29-.27"/><path class="cls-1" d="M346.69,161.76s-.56-1.2-2.62-.69"/><text class="cls-3" transform="translate(52.03 121.08) rotate(-17.88) scale(0.78 1)">Han </text><text class="cls-4" transform="translate(74.76 129.22) rotate(-17.46) scale(0.78 1)"><tspan xml:space="preserve"> Market</tspan></text><ellipse class="cls-5" cx="579.99" cy="295.82" rx="33.36" ry="6.63"/><polygon class="cls-2" points="549.7 275.51 550.16 287.94 559.8 287.94 560.19 275.51 549.7 275.51"/><polygon class="cls-2" points="561.43 275.51 561.82 287.94 571.49 287.94 571.95 275.51 561.43 275.51"/><rect class="cls-2" x="561.22" y="294.44" width="17.64" height="1.43"/><rect class="cls-2" x="567.19" y="288.86" width="11.67" height="5.57"/><path class="cls-2" d="M561.22,294.44h13.37a5.57,5.57,0,0,0-5.57-5.57h-2.23a5.57,5.57,0,0,0-5.57,5.57Z"/><rect class="cls-2" x="580.82" y="294.44" width="17.64" height="1.43" transform="translate(1179.28 590.31) rotate(180)"/><rect class="cls-2" x="580.82" y="288.86" width="11.67" height="5.57" transform="translate(1173.31 583.3) rotate(180)"/><path class="cls-2" d="M598.46,294.44H585.09a5.57,5.57,0,0,1,5.57-5.57h2.23a5.57,5.57,0,0,1,5.57,5.57Z"/><path class="cls-2" d="M543.66,281.15h0a51.68,51.68,0,0,0,39.16.41l1-.41s-3.47-50.37-5-57.45h-29.8C547.56,230.77,543.66,281.15,543.66,281.15Z"/><path class="cls-2" d="M559,160s-2.07-2.48-5,0"/><path class="cls-2" d="M568.06,158.77s2.07-2.48,5,0"/><path class="cls-2" d="M588,206.42c-.07-.54.62-1.1,1-1.74,1.56-2.35,2.62-4.88,4.12-7.25a31.34,31.34,0,0,0,2.33-4.94c-.8-3.43.82-6.6,1.9-9.8,1-2.9,3.15-7.74,3.79-7.59,1.91.52,1.26,2.76,1,3.77.29-.61,1.06-3.54,2.63-3,.9.33-.13,3.65-.08,4.14.27-.51,1.21-1.45,1.51-1.16,1.51.86-.68,5.12-2.18,7,1.4-.56,4-3,5.09-2.36s-3.74,2.75-4.46,4.6c-.8,2.21-.8,2.21-4.4,5.45-1.4,3.52-3.79,8.63-4.89,12.21-.44,1.44-2.73,3-6.19,1.64C588.42,207.09,588.08,206.76,588,206.42Z"/><path class="cls-6" d="M596,191.93c-2.63-3.61-2.14-7.48-1.35-10.84a5.43,5.43,0,0,1,.39-1.77c.39-.58,1.17-.34,1.45.27.59,1.31.36,2.63.39,3.88A8.17,8.17,0,0,0,597,185c1.58.38,2.1,2.47,2.24,3.27.27,1.37.32,3.48-1.88,3.86Z"/><ellipse class="cls-2" cx="562.32" cy="178.33" rx="31.64" ry="6.94"/><path class="cls-2" d="M559.27,158.91h7.43A12.31,12.31,0,0,1,579,171.22v23.64a4.87,4.87,0,0,1-4.87,4.87H551.82a4.87,4.87,0,0,1-4.87-4.87V171.22A12.31,12.31,0,0,1,559.27,158.91Z"/><path class="cls-2" d="M550.69,257.45h0a9,9,0,0,1-9-9v-27.3h9Z"/><rect class="cls-2" x="556.81" y="190.72" width="12.65" height="15.35"/><path class="cls-5" d="M569.46,190.72H556.81v9a13.65,13.65,0,0,0,5.56,1.18h1.53a13.65,13.65,0,0,0,5.56-1.18Z"/><polygon class="cls-2" points="577.96 236.86 548.31 236.86 548.31 206.07 554.24 203.41 572.06 201.94 577.96 204.79 577.96 236.86"/><path class="cls-2" d="M563.13,201l-8.89,2.45v2.05a8.91,8.91,0,0,0,9.08,8.91h0a8.91,8.91,0,0,0,8.74-9v-3.42Z"/><path class="cls-2" d="M548.31,206.07h0a12.77,12.77,0,0,0-8.16,10.38l-.49,3.92,8.64,3.43Z"/><path class="cls-2" d="M548.14,184.09h1.58v-5.63h-1.58a2.82,2.82,0,0,0-2.82,2.82h0A2.82,2.82,0,0,0,548.14,184.09Z"/><path class="cls-2" d="M577.47,184.09h-1.58v-5.63h1.58a2.82,2.82,0,0,1,2.82,2.82h0A2.82,2.82,0,0,1,577.47,184.09Z"/><path class="cls-2" d="M562.81,199.73h0c-4.89,0-13.76-6.53-13.76-14.58v-8.39c0-8.05,6.16-14.58,13.76-14.58h0c7.6,0,13.76,6.53,13.76,14.58v8.39C576.57,193.2,567.58,199.73,562.81,199.73Z"/><path class="cls-5" d="M562.81,198.59h0c-4.89,0-13.76-6.53-13.76-14.58v1.13c0,8.05,8.88,14.58,13.76,14.58h0c4.78,0,13.76-6.53,13.76-14.58V184C576.57,192.06,567.58,198.59,562.81,198.59Z"/><path class="cls-2" d="M562.74,193.27h0a7,7,0,0,1-7-7v-.19h14v.19A7,7,0,0,1,562.74,193.27Z"/><path class="cls-2" d="M548.1,175.71h6c8.12,0,14.7-6.2,14.7-13.85h-9.62c-6.15,0-11.13,4.69-11.13,10.48Z"/><path class="cls-2" d="M567.34,188.6a2.39,2.39,0,0,0,2.42-2.33v-.21h-14v.21a2.39,2.39,0,0,0,2.42,2.33Z"/><path class="cls-2" d="M564.08,152.3l-29.37,22.64s22.37-8.56,56.65.63Z"/><path class="cls-1" d="M566.46,179.63a3.09,3.09,0,0,1,4.11,0,2.61,2.61,0,0,0,2.63-.4"/><path class="cls-1" d="M560.18,179.63a3.09,3.09,0,0,0-4.11,0,2.61,2.61,0,0,1-2.63-.4"/><polygon class="cls-2" points="577.96 204.79 589.86 198.54 595.61 208.12 578.25 219.93 577.96 204.79"/><rect class="cls-2" x="431.39" y="142.42" width="6.73" height="164.96"/><rect class="cls-2" x="675.4" y="142.42" width="6.73" height="164.96"/><rect class="cls-2" x="438.12" y="229.74" width="237.27" height="77.64"/><rect class="cls-2" x="438.12" y="222.52" width="237.27" height="7.52"/><rect class="cls-2" x="506.51" y="244.94" width="99.71" height="46.38"/><path class="cls-2" d="M486.67,222.33a12.48,12.48,0,0,0,12.48-12.48h-25A12.48,12.48,0,0,0,486.67,222.33Z"/><path class="cls-2" d="M628.89,219.63a2.89,2.89,0,0,1-2.89,2.89H606.38a2.89,2.89,0,0,1-2.89-2.89V209.24a2.89,2.89,0,0,1,2.89-2.89H626a2.89,2.89,0,0,1,2.89,2.89Z"/><rect class="cls-2" x="606.38" y="203.39" width="20.01" height="2.96"/><rect class="cls-2" x="642.68" y="206.36" width="9.81" height="16.16" rx="2.89" ry="2.89"/><path class="cls-2" d="M649.7,209a2.07,2.07,0,0,1-2.07,2.07h0a2.07,2.07,0,0,1-2.07-2.07v-5.29a2.07,2.07,0,0,1,2.07-2.07h0a2.07,2.07,0,0,1,2.07,2.07Z"/><path class="cls-2" d="M677.34,87.87a4.45,4.45,0,0,1-4.45,4.45h-233a4.45,4.45,0,0,1-4.45-4.45h0a4.45,4.45,0,0,1,4.45-4.45h233a4.45,4.45,0,0,1,4.45,4.45Z"/><polygon class="cls-2" points="512.26 87.43 508.74 138.16 527.79 138.16 529.9 87.43 512.26 87.43"/><polygon class="cls-2" points="494.62 87.43 489.69 138.16 508.74 138.16 512.26 87.43 494.62 87.43"/><polygon class="cls-2" points="564.28 87.43 547.54 87.43 546.84 138.16 564.28 138.16 565.89 138.16 565.18 87.43 564.28 87.43"/><polygon class="cls-2" points="529.9 87.43 527.79 138.16 546.84 138.16 547.54 87.43 529.9 87.43"/><polygon class="cls-2" points="476.97 87.43 470.64 138.16 489.69 138.16 494.62 87.43 476.97 87.43"/><polygon class="cls-2" points="441.69 87.43 432.53 138.16 451.58 138.16 459.33 87.43 441.69 87.43"/><polygon class="cls-2" points="459.33 87.43 451.58 138.16 470.64 138.16 476.97 87.43 459.33 87.43"/><polygon class="cls-2" points="618.1 87.43 623.04 138.16 642.1 138.16 635.74 87.43 618.1 87.43"/><polygon class="cls-2" points="565.18 87.43 565.89 138.16 584.94 138.16 582.82 87.43 565.18 87.43"/><polygon class="cls-2" points="653.38 87.43 661.15 138.16 680.18 138.16 671.02 87.43 653.38 87.43"/><polygon class="cls-2" points="635.74 87.43 642.1 138.16 661.15 138.16 653.38 87.43 635.74 87.43"/><polygon class="cls-2" points="582.82 87.43 584.94 138.16 603.99 138.16 600.46 87.43 582.82 87.43"/><polygon class="cls-2" points="600.46 87.43 603.99 138.16 623.04 138.16 618.1 87.43 600.46 87.43"/><path class="cls-2" d="M451.58,138.16a9.53,9.53,0,1,1-19.05,0Z"/><path class="cls-2" d="M470.64,138.16a9.53,9.53,0,1,1-19.05,0Z"/><path class="cls-2" d="M489.69,138.16a9.53,9.53,0,1,1-19.05,0Z"/><path class="cls-2" d="M508.74,138.16a9.53,9.53,0,1,1-19.05,0Z"/><path class="cls-2" d="M527.79,138.16a9.53,9.53,0,1,1-19.05,0Z"/><path class="cls-2" d="M546.84,138.16a9.53,9.53,0,1,1-19.05,0Z"/><path class="cls-2" d="M565.89,138.16a9.53,9.53,0,1,1-19.05,0Z"/><path class="cls-2" d="M584.94,138.16a9.53,9.53,0,1,1-19.05,0Z"/><path class="cls-2" d="M604,138.16a9.53,9.53,0,1,1-19.05,0Z"/><path class="cls-2" d="M623,138.16a9.53,9.53,0,1,1-19.05,0Z"/><path class="cls-2" d="M642.1,138.16a9.53,9.53,0,1,1-19.05,0Z"/><path class="cls-2" d="M661.15,138.16a9.53,9.53,0,1,1-19.05,0Z"/><path class="cls-2" d="M680.2,138.16a9.53,9.53,0,1,1-19.05,0Z"/></svg>