<svg id="Layer_1" data-name="Layer 1" xmlns="http://www.w3.org/2000/svg" viewBox="0 0 694 345"><defs><style>.cls-1,.cls-3{fill:#fff;}.cls-1,.cls-2,.cls-3,.cls-5{stroke:#647eb2;stroke-miterlimit:10;}.cls-2,.cls-5{fill:none;}.cls-2,.cls-3{stroke-width:2px;}.cls-4,.cls-7{fill:#647eb2;}.cls-4,.cls-6{opacity:0.53;}.cls-5{font-size:12.53px;font-family:VNI-Tekon-Italic, VNI-Tekon;font-style:italic;}</style></defs><title>Route 4 - Cathedral-01</title><rect class="cls-1" x="280.14" y="4.4" width="1.67" height="14.42"/><rect class="cls-1" x="276.38" y="7.63" width="9.2" height="1.67"/><circle class="cls-2" cx="280.98" cy="19.92" r="1.41"/><circle class="cls-2" cx="280.98" cy="22.42" r="2.04"/><rect class="cls-3" x="334.56" y="239.41" width="23.81" height="65.14"/><rect class="cls-3" x="204.98" y="237.54" width="23.81" height="67"/><rect class="cls-1" x="345.98" y="198.28" width="1.57" height="13.58"/><rect class="cls-1" x="342.43" y="201.33" width="8.66" height="1.57"/><rect class="cls-3" x="335.55" y="220.52" width="23.61" height="18.1"/><rect class="cls-3" x="341.25" y="261.25" width="12.2" height="25.78"/><rect class="cls-3" x="340.47" y="215.21" width="12.99" height="5.12"/><rect class="cls-3" x="343.61" y="211.6" width="6.89" height="3.61"/><rect class="cls-1" x="215.8" y="198.28" width="1.57" height="13.58"/><rect class="cls-1" x="212.26" y="201.33" width="8.66" height="1.57"/><rect class="cls-3" x="204.19" y="220.52" width="23.61" height="18.1"/><rect class="cls-3" x="209.9" y="261.25" width="12.2" height="25.78"/><rect class="cls-3" x="209.9" y="215.21" width="12.99" height="5.12"/><rect class="cls-3" x="212.85" y="211.6" width="6.89" height="3.61"/><rect class="cls-3" x="232.03" y="183.82" width="99.77" height="53.72"/><polygon class="cls-3" points="280.59 19.41 260.52 117.7 272.47 117.7 280.59 19.41"/><polygon class="cls-3" points="290.33 117.7 280.59 19.51 302.58 117.7 290.33 117.7"/><polygon class="cls-3" points="290.33 117.7 280.59 19.51 272.47 117.7 290.33 117.7"/><rect class="cls-3" x="255.06" y="124.78" width="5.31" height="57.85"/><rect class="cls-3" x="303.47" y="124.78" width="5.31" height="57.85"/><rect class="cls-3" x="253.88" y="130.1" width="7.67" height="2.95"/><rect class="cls-3" x="302.29" y="130.1" width="7.67" height="2.95"/><circle class="cls-1" cx="281.25" cy="147.29" r="4.8"/><path class="cls-3" d="M279.85,158.66a6.07,6.07,0,0,0-6.12-6.13,6.2,6.2,0,0,0-6.27,6.13v16.9h12.4Z"/><path class="cls-3" d="M297,158.66a6.07,6.07,0,0,0-6.12-6.13,6.2,6.2,0,0,0-6.27,6.13v16.9H297Z"/><rect class="cls-3" x="253.88" y="183.82" width="56.08" height="53.72"/><rect class="cls-3" x="226.72" y="180.13" width="5.9" height="56.82"/><rect class="cls-3" x="330.62" y="180.13" width="5.9" height="56.82"/><circle class="cls-3" cx="281.43" cy="213.16" r="11.41"/><rect class="cls-3" x="252.7" y="244.63" width="12.99" height="1.18"/><rect class="cls-3" x="298.15" y="244.63" width="12.99" height="1.18"/><rect class="cls-3" x="226.82" y="246.4" width="5.9" height="46.64"/><rect class="cls-3" x="253.29" y="245.8" width="11.81" height="47.23"/><rect class="cls-3" x="226.82" y="245.22" width="5.9" height="47.82"/><rect class="cls-3" x="253.29" y="244.63" width="11.81" height="48.41"/><rect class="cls-3" x="225.93" y="292.74" width="7.67" height="1.08"/><rect class="cls-3" x="251.93" y="292.74" width="14.37" height="1.08"/><rect class="cls-3" x="330.85" y="245.22" width="5.9" height="47.82"/><rect class="cls-3" x="298.48" y="245.8" width="11.81" height="47.23"/><rect class="cls-3" x="298.48" y="244.63" width="11.81" height="48.41"/><rect class="cls-3" x="330.15" y="292.74" width="7.67" height="1.08"/><rect class="cls-3" x="297.28" y="292.74" width="14.37" height="1.08"/><rect class="cls-3" x="220.33" y="289.68" width="123.38" height="14.58"/><path class="cls-3" d="M249.35,218.48a6.07,6.07,0,0,0-6.12-6.13,6.2,6.2,0,0,0-6.27,6.13v16.9h12.4Z"/><circle class="cls-3" cx="242.96" cy="207.33" r="2.76"/><path class="cls-3" d="M327.34,218.48a6.07,6.07,0,0,0-6.13-6.13,6.2,6.2,0,0,0-6.27,6.13v16.9h12.4Z"/><circle class="cls-3" cx="320.94" cy="207.33" r="2.76"/><path class="cls-3" d="M293.74,259.64c0-6-5.22-10.89-12-10.89s-12.3,4.87-12.3,10.89v30h24.32Z"/><circle class="cls-3" cx="242.66" cy="268.24" r="4.43"/><circle class="cls-3" cx="320.65" cy="268.24" r="4.43"/><rect class="cls-3" x="188.64" y="304.74" width="192.74" height="10.23"/><rect class="cls-3" x="254.47" y="116.53" width="54.31" height="7.66"/><polygon class="cls-3" points="233.21 245.22 226.13 245.22 224.95 236.95 234.4 236.95 233.21 245.22"/><polygon class="cls-3" points="265.48 244.63 252.41 244.63 250.24 237.54 267.65 237.54 265.48 244.63"/><polygon class="cls-3" points="330.26 245.6 337.35 245.6 338.52 236.56 329.08 236.56 330.26 245.6"/><polygon class="cls-3" points="298.04 244.63 311.1 244.63 313.28 237.54 295.87 237.54 298.04 244.63"/><line class="cls-2" y1="316.34" x2="694" y2="316.34"/><line class="cls-2" x1="28.65" y1="334.38" x2="110.68" y2="334.38"/><line class="cls-2" x1="134.61" y1="334.38" x2="174.3" y2="334.38"/><line class="cls-2" x1="200.11" y1="334.38" x2="250.25" y2="334.38"/><line class="cls-2" x1="268.32" y1="334.38" x2="318.46" y2="334.38"/><line class="cls-2" x1="336.53" y1="334.38" x2="386.67" y2="334.38"/><line class="cls-2" x1="404.74" y1="334.38" x2="454.88" y2="334.38"/><line class="cls-2" x1="472.95" y1="334.38" x2="523.09" y2="334.38"/><line class="cls-2" x1="541.16" y1="334.38" x2="591.3" y2="334.38"/><line class="cls-2" x1="609.37" y1="334.38" x2="659.51" y2="334.38"/><g id="_Group_" data-name="&lt;Group&gt;"><polyline id="_Path_" data-name="&lt;Path&gt;" class="cls-2" points="184.73 84.82 179.78 88.41 145.11 88.41"/><line id="_Path_2" data-name="&lt;Path&gt;" class="cls-2" x1="154.94" y1="88.32" x2="169.51" y2="79.9"/></g><rect class="cls-3" x="423.15" y="280.28" width="8.74" height="14.35"/><polygon class="cls-4" points="431.88 294.64 423.15 294.64 431.88 280.28 431.88 294.64"/><rect class="cls-3" x="440.34" y="280.28" width="8.74" height="14.35"/><polygon class="cls-4" points="449.08 294.64 440.34 294.64 449.08 280.28 449.08 294.64"/><rect class="cls-3" x="467.49" y="266.39" width="8.74" height="14.35"/><polygon class="cls-4" points="476.22 280.75 467.49 280.75 476.22 266.39 476.22 280.75"/><rect class="cls-3" x="484.68" y="266.39" width="8.74" height="14.35"/><polygon class="cls-4" points="493.42 280.75 484.68 280.75 493.42 266.39 493.42 280.75"/><rect class="cls-3" x="476.68" y="285.93" width="8.74" height="14.35"/><polygon class="cls-4" points="485.41 300.29 476.68 300.29 485.41 285.93 485.41 300.29"/><rect class="cls-3" x="493.87" y="285.93" width="8.74" height="14.35"/><polygon class="cls-4" points="502.61 300.29 493.87 300.29 502.61 285.93 502.61 300.29"/><rect class="cls-1" x="534.86" y="299.65" width="9.29" height="13.43"/><polygon class="cls-1" points="544.15 299.65 534.86 313.08 544.15 313.08 544.15 299.65"/><ellipse class="cls-1" cx="542.39" cy="306.04" rx="0.64" ry="0.63"/><rect class="cls-3" x="516.73" y="280.52" width="3.96" height="6.5"/><polygon class="cls-4" points="520.85 286.87 516.89 286.87 520.85 280.37 520.85 286.87"/><rect class="cls-3" x="524.68" y="280.36" width="3.96" height="6.5"/><polygon class="cls-4" points="528.48 287.02 524.52 287.02 528.48 280.52 528.48 287.02"/><rect class="cls-3" x="532.31" y="280.52" width="3.96" height="6.5"/><polygon class="cls-4" points="536.27 287.02 532.31 287.02 536.27 280.52 536.27 287.02"/><rect class="cls-3" x="540.1" y="280.52" width="3.96" height="6.5"/><polygon class="cls-4" points="544.06 287.02 540.1 287.02 544.06 280.52 544.06 287.02"/><rect class="cls-3" x="547.89" y="280.52" width="3.96" height="6.5"/><polygon class="cls-4" points="551.85 287.02 547.89 287.02 551.85 280.52 551.85 287.02"/><rect class="cls-3" x="516.73" y="290.3" width="3.96" height="6.5"/><polygon class="cls-4" points="520.85 296.64 516.89 296.64 520.85 290.14 520.85 296.64"/><rect class="cls-3" x="524.52" y="290.3" width="3.96" height="6.5"/><polygon class="cls-4" points="528.48 296.8 524.52 296.8 528.48 290.3 528.48 296.8"/><rect class="cls-3" x="532.31" y="290.3" width="3.96" height="6.5"/><polygon class="cls-4" points="536.27 296.8 532.31 296.8 536.27 290.3 536.27 296.8"/><rect class="cls-3" x="540.1" y="290.3" width="3.96" height="6.5"/><polygon class="cls-4" points="544.06 296.8 540.1 296.8 544.06 290.3 544.06 296.8"/><rect class="cls-3" x="547.89" y="290.3" width="3.96" height="6.5"/><polygon class="cls-4" points="551.85 296.8 547.89 296.8 551.85 290.3 551.85 296.8"/><rect class="cls-3" x="584.25" y="272.27" width="8.58" height="14.09"/><rect class="cls-3" x="616.24" y="280.43" width="8.58" height="14.09"/><path class="cls-3" d="M56.61,308.71v-2.32h5.45c.82.44,3.41,5.37,3.41,5.37S56.61,312.65,56.61,308.71Z"/><path class="cls-3" d="M168.91,307.32v1.4c0,3.28-2.32,3-2.32,3h-1.85l.91-4.45Z"/><path class="cls-3" d="M61.33,281.25s.45-2.11,2-2.11H166a1.82,1.82,0,0,1,2,2.11l.91,10.63v16.83c0,3.05-2.32,3-2.32,3H65.47s-8.86.89-8.86-3v-8.93Z"/><polygon class="cls-1" points="62.73 281.92 68.23 281.92 68.23 295.49 58.19 298.95 62.73 281.92"/><path class="cls-1" d="M75.43,281.92H81.8c2.31,0,3.14.1,3.14,1.91v27a2.61,2.61,0,0,1-.17.92h-12a2.61,2.61,0,0,1-.17-.92v-27C72.64,282,73.12,281.92,75.43,281.92Z"/><rect class="cls-1" x="79.25" y="283.1" width="4.04" height="27.76"/><rect class="cls-1" x="74.29" y="283.1" width="4.04" height="27.76"/><polygon class="cls-1" points="89.8 282.34 165.91 282.34 168.03 291.53 89.8 291.53 89.8 282.34"/><rect class="cls-1" x="102.02" y="281.9" width="0.67" height="10.26"/><rect class="cls-1" x="112.42" y="281.9" width="0.45" height="10.26"/><rect class="cls-1" x="123.32" y="281.9" width="0.45" height="10.26"/><rect class="cls-1" x="134.21" y="281.9" width="0.45" height="10.26"/><rect class="cls-1" x="145.11" y="281.9" width="0.45" height="10.26"/><rect class="cls-1" x="156" y="281.9" width="0.45" height="10.26"/><circle class="cls-3" cx="157.83" cy="310.31" r="6.05"/><circle class="cls-3" cx="157.83" cy="310.31" r="3.48"/><circle class="cls-3" cx="144.22" cy="310.31" r="6.05"/><circle class="cls-3" cx="144.22" cy="310.31" r="3.48"/><circle class="cls-3" cx="93.29" cy="310.31" r="6.05"/><circle class="cls-3" cx="93.29" cy="310.31" r="3.48"/><text class="cls-5" transform="translate(104.21 302.94) scale(0.78 1)">Coco Bus</text><g class="cls-6"><path class="cls-7" d="M531.84,140.33l-2.07-1,5.86-11.56a1.16,1.16,0,0,1,2.15.19l3.4,11.56-2.22.64-2.58-8.76Z"/><path class="cls-7" d="M545,114.57a2.14,2.14,0,0,0-2.16,2.13,2.09,2.09,0,0,0,.15.77l-4.29,4.23,1.23,1.21,4.29-4.23a2.17,2.17,0,0,0,.78.15,2.13,2.13,0,1,0,0-4.25Z"/><path class="cls-7" d="M549.79,129.08a12.4,12.4,0,0,1-17.35,0,12,12,0,0,1,0-17.09Z"/></g><rect class="cls-3" x="496.9" y="142.43" width="87.31" height="34.79"/><rect class="cls-3" x="496.9" y="142.43" width="7.48" height="34.79"/><rect class="cls-3" x="420.33" y="216.98" width="68.62" height="99.36"/><rect class="cls-3" x="423.65" y="214.07" width="70.76" height="6.17"/><rect class="cls-3" x="435.21" y="224.83" width="9.64" height="15.83"/><polygon class="cls-4" points="444.85 240.66 435.21 240.66 444.85 224.83 444.85 240.66"/><rect class="cls-3" x="454.18" y="224.83" width="9.64" height="15.83"/><polygon class="cls-4" points="463.81 240.66 454.18 240.66 463.81 224.83 463.81 240.66"/><rect class="cls-3" x="435.21" y="248.63" width="9.64" height="15.83"/><polygon class="cls-4" points="444.85 264.46 435.21 264.46 444.85 248.63 444.85 264.46"/><rect class="cls-3" x="454.18" y="248.63" width="9.64" height="15.83"/><polygon class="cls-4" points="463.81 264.46 454.18 264.46 463.81 248.63 463.81 264.46"/><rect class="cls-3" x="479.89" y="180.47" width="117.42" height="135.88"/><rect class="cls-3" x="479.89" y="180.47" width="11.86" height="135.88"/><rect class="cls-3" x="477.1" y="174.3" width="123" height="6.17"/><rect class="cls-3" x="493.17" y="136.26" width="94.76" height="6.17"/><rect class="cls-3" x="496.9" y="188.31" width="9.64" height="15.83"/><polygon class="cls-4" points="506.92 203.76 497.28 203.76 506.92 187.94 506.92 203.76"/><rect class="cls-3" x="516.24" y="187.94" width="9.64" height="15.83"/><polygon class="cls-4" points="525.5 204.14 515.86 204.14 525.5 188.31 525.5 204.14"/><rect class="cls-3" x="534.83" y="188.31" width="9.64" height="15.83"/><polygon class="cls-4" points="544.46 204.14 534.83 204.14 544.46 188.31 544.46 204.14"/><rect class="cls-3" x="553.79" y="188.31" width="9.63" height="15.83"/><polygon class="cls-4" points="563.42 204.14 553.79 204.14 563.42 188.31 563.42 204.14"/><rect class="cls-3" x="572.76" y="188.31" width="9.63" height="15.83"/><polygon class="cls-4" points="582.39 204.14 572.76 204.14 582.39 188.31 582.39 204.14"/><rect class="cls-3" x="496.9" y="212.11" width="9.64" height="15.83"/><polygon class="cls-4" points="506.92 227.56 497.28 227.56 506.92 211.74 506.92 227.56"/><rect class="cls-3" x="515.86" y="212.11" width="9.64" height="15.83"/><polygon class="cls-4" points="525.5 227.94 515.86 227.94 525.5 212.11 525.5 227.94"/><rect class="cls-3" x="534.83" y="212.11" width="9.64" height="15.83"/><polygon class="cls-4" points="544.46 227.94 534.83 227.94 544.46 212.11 544.46 227.94"/><rect class="cls-3" x="553.79" y="212.11" width="9.63" height="15.83"/><polygon class="cls-4" points="563.42 227.94 553.79 227.94 563.42 212.11 563.42 227.94"/><rect class="cls-3" x="572.76" y="212.11" width="9.63" height="15.83"/><polygon class="cls-4" points="582.39 227.94 572.76 227.94 582.39 212.11 582.39 227.94"/><ellipse class="cls-3" cx="520.68" cy="157.99" rx="9.23" ry="9.1"/><path class="cls-3" d="M527.21,151.56l-13.05,12.86a9.27,9.27,0,0,0,6.53,2.66,9.16,9.16,0,0,0,9.23-9.1A9,9,0,0,0,527.21,151.56Z"/><ellipse class="cls-3" cx="560.43" cy="157.99" rx="9.23" ry="9.1"/><path class="cls-3" d="M567,151.56,553.9,164.42a9.26,9.26,0,0,0,6.53,2.66,9.16,9.16,0,0,0,9.23-9.1A9,9,0,0,0,567,151.56Z"/><rect class="cls-3" x="435.73" y="185.39" width="18.02" height="11.67"/><rect class="cls-3" x="453.75" y="185.39" width="3.89" height="27.56"/><rect class="cls-3" x="518.58" y="247.44" width="73.71" height="68.66"/><polygon class="cls-3" points="592.29 247.13 577.71 224.62 532.43 224.62 517.84 247.13 592.29 247.13"/><path class="cls-3" d="M664.06,134.61H624a29.08,29.08,0,0,0-9.76,21.72h59.56A29.08,29.08,0,0,0,664.06,134.61Z"/><path class="cls-3" d="M624,134.61a29.08,29.08,0,0,0-9.76,21.72h7.62a29.08,29.08,0,0,1,9.76-21.72Z"/><rect class="cls-3" x="624.07" y="129.99" width="39.99" height="4.62"/><polygon class="cls-1" points="658.53 112.39 658.53 110.06 644.78 110.06 644.78 112.39 650.47 112.39 650.47 114.46 644.78 114.46 644.78 116.79 650.47 116.79 650.47 118.86 644.78 118.86 644.78 121.19 650.47 121.19 650.47 129.99 652.84 129.99 652.84 121.19 658.53 121.19 658.53 118.86 652.84 118.86 652.84 116.79 658.53 116.79 658.53 114.46 652.84 114.46 652.84 112.39 658.53 112.39"/><rect class="cls-3" x="614.26" y="158.72" width="59.56" height="58.69"/><rect class="cls-3" x="614.26" y="158.72" width="9.81" height="58.69"/><rect class="cls-3" x="610.43" y="153.94" width="67.22" height="4.78"/><rect class="cls-3" x="607" y="219.8" width="74.08" height="96.54"/><rect class="cls-3" x="603.26" y="217.41" width="81.56" height="4.78"/><rect class="cls-3" x="617.04" y="229.88" width="12.3" height="15.53"/><rect class="cls-3" x="639.98" y="229.88" width="12.3" height="15.53"/><rect class="cls-3" x="617.04" y="252.3" width="12.3" height="15.53"/><rect class="cls-3" x="639.98" y="252.3" width="12.3" height="15.53"/><rect class="cls-3" x="661.22" y="229.65" width="12.3" height="15.53"/><rect class="cls-3" x="661.22" y="252.08" width="12.3" height="15.53"/><rect class="cls-3" x="536.27" y="257.56" width="9.46" height="15.53"/><rect class="cls-3" x="553.9" y="257.56" width="9.46" height="15.53"/><rect class="cls-3" x="571.54" y="257.56" width="9.46" height="15.53"/><rect class="cls-3" x="504.4" y="279.06" width="8.58" height="14.08"/><rect class="cls-3" x="520.39" y="279.06" width="8.58" height="14.08"/><rect class="cls-3" x="536.38" y="279.06" width="8.58" height="14.08"/><rect class="cls-3" x="632.62" y="168.25" width="9.64" height="15.83"/><rect class="cls-3" x="651.59" y="168.25" width="9.64" height="15.83"/><rect class="cls-3" x="632.62" y="192.06" width="9.64" height="15.83"/><rect class="cls-3" x="651.59" y="192.06" width="9.64" height="15.83"/></svg>