<svg id="Layer_1" data-name="Layer 1" xmlns="http://www.w3.org/2000/svg" viewBox="0 0 694 345"><defs><style>.cls-1,.cls-4{fill:#fff;}.cls-1,.cls-2,.cls-3,.cls-4,.cls-5,.cls-6{stroke:#647eb2;stroke-miterlimit:10;}.cls-1,.cls-3,.cls-4{stroke-width:2px;}.cls-2{fill:#586a92;opacity:0.47;}.cls-3,.cls-6{fill:none;}.cls-4{opacity:0.53;}.cls-5{fill:#8baad8;}.cls-6{font-size:8.28px;stroke-width:0.5px;font-family:VNI-Tekon-Italic, VNI-Tekon;font-style:italic;}.cls-7{fill:#647eb2;}</style></defs><title>Route 2- Dragon Bridge-01</title><polygon class="cls-1" points="537.27 308.24 435.46 126.1 333.65 308.24 537.27 308.24"/><polygon class="cls-2" points="435.46 126.1 406.94 177.12 408.52 178.81 417.17 169.54 425.82 178.81 434.48 169.54 443.13 178.81 451.78 169.54 460.44 178.81 463.25 175.8 435.46 126.1"/><polygon class="cls-1" points="677.33 308.24 546.42 97.11 415.5 308.24 677.33 308.24"/><polygon class="cls-2" points="546.42 95.55 509.75 154.69 511.77 156.65 522.89 145.91 534.02 156.65 545.15 145.91 556.28 156.65 567.4 145.91 578.53 156.65 582.14 153.16 546.42 95.55"/><line class="cls-3" y1="308.24" x2="686.69" y2="308.24"/><line class="cls-3" x1="7.45" y1="327.04" x2="92.95" y2="327.04"/><line class="cls-3" x1="117.89" y1="327.04" x2="159.27" y2="327.04"/><line class="cls-3" x1="186.17" y1="327.04" x2="238.43" y2="327.04"/><line class="cls-3" x1="257.26" y1="327.04" x2="309.52" y2="327.04"/><line class="cls-3" x1="328.36" y1="327.04" x2="380.62" y2="327.04"/><line class="cls-3" x1="399.45" y1="327.04" x2="451.71" y2="327.04"/><line class="cls-3" x1="470.54" y1="327.04" x2="522.81" y2="327.04"/><line class="cls-3" x1="541.64" y1="327.04" x2="593.9" y2="327.04"/><line class="cls-3" x1="612.73" y1="327.04" x2="665" y2="327.04"/><line class="cls-3" x1="209.22" y1="127.2" x2="376.66" y2="127.2"/><line class="cls-3" x1="267.07" y1="206.83" x2="318.81" y2="47.58"/><line class="cls-3" x1="360.67" y1="176.41" x2="225.21" y2="77.99"/><line class="cls-3" x1="360.67" y1="77.99" x2="225.21" y2="176.41"/><rect class="cls-4" x="288.95" y="136.02" width="8.21" height="135.68"/><line class="cls-3" x1="267.07" y1="47.58" x2="318.81" y2="206.83"/><circle class="cls-3" cx="292.94" cy="127.2" r="83.72"/><circle class="cls-1" cx="292.94" cy="127.2" r="19.44"/><path class="cls-1" d="M214.72,78.68a10.66,10.66,0,0,1-.07-1.17,10.55,10.55,0,1,1,21,1.17Z"/><path class="cls-1" d="M257.5,47.39a10.66,10.66,0,0,1-.07-1.17,10.55,10.55,0,1,1,21,1.17Z"/><path class="cls-1" d="M308.39,48.08a10.66,10.66,0,0,1-.07-1.17,10.55,10.55,0,1,1,21,1.17Z"/><path class="cls-1" d="M350.25,78.5a10.66,10.66,0,0,1-.07-1.17,10.55,10.55,0,1,1,21,1.17Z"/><path class="cls-1" d="M350.76,177.52a10.66,10.66,0,0,1-.07-1.17,10.55,10.55,0,1,1,21,1.17Z"/><path class="cls-1" d="M308.39,207.7a10.66,10.66,0,0,1-.07-1.17,10.55,10.55,0,1,1,21,1.17Z"/><path class="cls-1" d="M256.75,207a10.66,10.66,0,0,1-.07-1.17,10.55,10.55,0,1,1,21,1.17Z"/><path class="cls-1" d="M214.72,176.83a10.66,10.66,0,0,1-.07-1.17,10.55,10.55,0,1,1,21,1.17Z"/><path class="cls-5" d="M214.72,77.3a10.66,10.66,0,0,0-.07,1.17,10.55,10.55,0,1,0,21-1.17Z"/><path class="cls-5" d="M257.5,46a10.66,10.66,0,0,0-.07,1.17,10.55,10.55,0,1,0,21-1.17Z"/><path class="cls-5" d="M308.39,46.7a10.66,10.66,0,0,0-.07,1.17,10.55,10.55,0,1,0,21-1.17Z"/><path class="cls-5" d="M350.25,77.12a10.66,10.66,0,0,0-.07,1.17,10.55,10.55,0,1,0,21-1.17Z"/><path class="cls-5" d="M366.18,126.51a10.66,10.66,0,0,0-.07,1.17,10.55,10.55,0,1,0,21-1.17Z"/><path class="cls-5" d="M350.76,176.14a10.66,10.66,0,0,0-.07,1.17,10.55,10.55,0,1,0,21-1.17Z"/><path class="cls-5" d="M308.39,206.32a10.66,10.66,0,0,0-.07,1.17,10.55,10.55,0,1,0,21-1.17Z"/><path class="cls-5" d="M256.75,205.63a10.66,10.66,0,0,0-.07,1.17,10.55,10.55,0,1,0,21-1.17Z"/><path class="cls-5" d="M214.72,175.45a10.66,10.66,0,0,0-.07,1.17,10.55,10.55,0,1,0,21-1.17Z"/><path class="cls-5" d="M198.73,125.82a10.66,10.66,0,0,0-.07,1.17,10.55,10.55,0,1,0,21-1.17Z"/><path class="cls-1" d="M198.73,127.2a10.66,10.66,0,0,1-.07-1.17,10.55,10.55,0,1,1,21,1.17Z"/><text class="cls-6" transform="translate(278.54 131.88) scale(0.78 1)">SUNWHEEL</text><path class="cls-1" d="M366.18,128a10.66,10.66,0,0,1-.07-1.17,10.55,10.55,0,1,1,21,1.17Z"/><path class="cls-1" d="M639.69,228c3,.27,5.85-4.35,6.36-10.32s-3-8-4.51-11.31c-2.72,2.48-5.85,4.35-6.36,10.32S636.69,227.73,639.69,228Z"/><path class="cls-1" d="M640.37,230.44c-.09,3.11,4.75,5.78,10.8,6s7.88-3.57,11.12-5.3c-2.67-2.67-4.75-5.78-10.8-6S640.46,227.33,640.37,230.44Z"/><path class="cls-1" d="M635.91,233.24c2.72,3.25,12.14-.57,21-8.52s8.09-14.19,11.17-20.28c-6.3.91-12.14.57-21,8.52S633.19,230,635.91,233.24Z"/><rect class="cls-1" x="510.21" y="258.03" width="44.17" height="17.66" transform="translate(1064.58 533.71) rotate(-180)"/><rect class="cls-1" x="521.39" y="272.01" width="21.8" height="28.31" transform="translate(1064.58 572.32) rotate(-180)"/><rect class="cls-7" x="389.22" y="191.24" width="2.96" height="70.27" transform="translate(781.41 452.76) rotate(-180)"/><rect class="cls-7" x="375.61" y="191.24" width="2.96" height="70.27" transform="translate(754.18 452.76) rotate(-180)"/><rect class="cls-7" x="362" y="191.24" width="2.96" height="70.27" transform="translate(726.96 452.76) rotate(-180)"/><rect class="cls-7" x="348.39" y="191.24" width="2.96" height="70.27" transform="translate(699.73 452.76) rotate(-180)"/><rect class="cls-7" x="334.77" y="195.66" width="2.96" height="70.27" transform="translate(672.5 461.59) rotate(-180)"/><rect class="cls-7" x="402.84" y="191.24" width="2.96" height="70.27" transform="translate(808.63 452.76) rotate(-180)"/><rect class="cls-7" x="416.45" y="188.36" width="2.96" height="70.27" transform="translate(835.86 446.98) rotate(-180)"/><rect class="cls-7" x="430.06" y="191.24" width="2.96" height="70.27" transform="translate(863.09 452.76) rotate(-180)"/><rect class="cls-7" x="220.42" y="210.33" width="2.87" height="43.33" transform="translate(443.72 463.98) rotate(-180)"/><rect class="cls-7" x="207.22" y="210.33" width="2.87" height="43.33" transform="translate(417.31 463.98) rotate(-180)"/><rect class="cls-7" x="194.02" y="210.33" width="2.87" height="43.33" transform="translate(390.9 463.98) rotate(-180)"/><rect class="cls-7" x="180.81" y="210.33" width="2.87" height="43.33" transform="translate(364.5 463.98) rotate(-180)"/><rect class="cls-7" x="167.61" y="213.05" width="2.87" height="43.33" transform="translate(338.09 469.42) rotate(-180)"/><rect class="cls-7" x="233.63" y="210.33" width="2.87" height="43.33" transform="translate(470.12 463.98) rotate(-180)"/><rect class="cls-7" x="246.83" y="208.55" width="2.87" height="43.33" transform="translate(496.53 460.42) rotate(-180)"/><rect class="cls-7" x="260.03" y="210.33" width="2.87" height="43.33" transform="translate(522.93 463.98) rotate(-180)"/><rect class="cls-1" x="520.27" y="223.51" width="2.87" height="34.72" transform="translate(1043.4 481.74) rotate(-180)"/><rect class="cls-1" x="507.06" y="223.51" width="2.87" height="34.72" transform="translate(1016.99 481.74) rotate(-180)"/><rect class="cls-1" x="533.47" y="223.51" width="2.87" height="34.72" transform="translate(1069.81 481.74) rotate(-180)"/><rect class="cls-1" x="546.67" y="222.09" width="2.87" height="34.72" transform="translate(1096.21 478.89) rotate(-180)"/><rect class="cls-1" x="559.87" y="223.51" width="2.87" height="34.72" transform="translate(1122.62 481.74) rotate(-180)"/><path class="cls-1" d="M20,210.47c1.6,0,2.31.71,2.5,2.42a11.91,11.91,0,0,0,2.46,5.34c.42.59.87,1.26,1.73,1s.87-1.05,1.05-1.76c.1-.41-.21-.9.39-1.3a14,14,0,0,1,2.63,3.57c1.13,2.19,3.06,1.59,4.76,1.82.34,0,.63-.32.82-.64.68-1.21,1.33-.7,2,0,.83.9,1.68,1.8,2.47,2.75a3.9,3.9,0,0,0,2.57,1.42c1.56.2,3.18-.09,4.65.56s2.78,1.45,4.18,2.2c.54-.6.37-1.4.59-2.06.7-2.12,1.89-2.87,3.92-2.15,1.56.55,3,1.36,4.53,2,1,.39,2,.95,3,0-.48-1.37-1.78-2.15-2.2-3.51a.78.78,0,0,1,1-.27h0a2.41,2.41,0,0,0,.37.12,26.21,26.21,0,0,0,3.36.67l.49.46C78.39,233.56,94.37,249.32,96.61,256a3.44,3.44,0,0,1,.21,1.87c-1.77,7.36,20.31,0,20.31,0l4.28-4.18s-11.27-25.4-30.91-38.16c0-.14-.05-.26-.06-.4a2.94,2.94,0,0,1-.53,0q-1.39-.89-2.84-1.68c-.26-.25-.52-.49-.78-.71s-.18-.66.05-1l.86-1.17c-2.61-1.19-5.65-.79-7.86-2.88.08-1,1.12-1.44,1.37-2.48a29.59,29.59,0,0,0-5.06-.27,9.77,9.77,0,0,1-2.32-.19c-.55-.17-1.72.06-1.34-1.31,0-.14-.62-.54-1-.72-3-1.45-5.91-2.94-9.3-3.09-.86,0-2.15,0-2.17-1.25s1.25-1.25,2.13-1.33c3.69-.38,7.41-.23,11.11-.27a9.08,9.08,0,0,0,2.32-.25c-5.11-3.14-10.86-3.66-16.72-4.47.95-2.06-1.1-2.08-2-3,1.66-1.43,3.53-1.1,5.36-1-1.36-3.87-3.31-5-6.89-4-1.45.38-2.88.87-4.3,1.37a2.08,2.08,0,0,1-2.37-.37,6.15,6.15,0,0,0-1.43-1c-2.12-1.11-3.78-.75-5.33,1.12-.38.45-.71.93-1,1.42a2.22,2.22,0,0,1-2.26,1.17c-2.35-.14-4.16,1.39-5.59,3.16-1.27,1.6-1.3,1.78-2.86.79a4.37,4.37,0,0,0-4.07-.45,9.85,9.85,0,0,1-3.31.86c-.86,0-1.18.72-1.68,1.2a13.23,13.23,0,0,0-.49,3.49c.08,3.37,2.69,5.27,5.52,3.68,1.83-1,2.87-.41,4.09.74a10.65,10.65,0,0,1,3.18,4.44,13.06,13.06,0,0,1-6.43.15.77.77,0,0,1-.45-.4c-.72-1.41-1.93-.92-3-.77a2.91,2.91,0,0,0-2.44,2.18A14.63,14.63,0,0,0,20,210.47Zm33.83-10.14a1.53,1.53,0,0,1-2.26-1.19,1.88,1.88,0,1,1,3.6-1.12A1.79,1.79,0,0,1,53.81,200.33Zm-.45,4.81a1.81,1.81,0,0,1,1.14-2.43,1.82,1.82,0,0,1,2.41,1.14,1.8,1.8,0,0,1-1.24,2.37A1.53,1.53,0,0,1,53.36,205.15Zm-1,3.64A1.87,1.87,0,0,1,54.8,210a2.07,2.07,0,0,1-1.43,2.56,1.8,1.8,0,0,1-2.3-1.39A1.76,1.76,0,0,1,52.37,208.79ZM47.31,214a1.7,1.7,0,0,1,2.38,1.15,1.93,1.93,0,0,1-1.2,2.63A2,2,0,0,1,46,216.61,2,2,0,0,1,47.31,214Zm-9.79-19.34a1.86,1.86,0,0,1,2.35,1.3,1.72,1.72,0,0,1-1.27,2.34,1.84,1.84,0,0,1-2.4-1.19A2.18,2.18,0,0,1,37.53,194.66Z"/><path class="cls-1" d="M63,221.85a2.41,2.41,0,0,0,.37.12,26.21,26.21,0,0,0,3.36.67c11.18,10.46,27.6,26.6,29.88,33.33,2.31-1,5.32-2.31,5.32-2.31s-12.49-18.27-20-24.32S66.9,220.28,63,221.85Z"/><path class="cls-1" d="M300.62,250.78q-.55,3.49-.9,7.05h23.34c4.84-35.94,31.28-63.42,63.17-63.42s58.34,27.48,63.17,63.42h23.35a116.08,116.08,0,0,0-7.79-32l12.62-3.92-17.27-6.11a100,100,0,0,0-18.58-25.09l9.32-11.76-20.46,2.53a79.26,79.26,0,0,0-27.43-12.34l2.06-15-14.41,13.24c-1.52-.09-3.05-.14-4.6-.14a75,75,0,0,0-17.85,2.16l-4.32-15.25-7,19a84.43,84.43,0,0,0-25.5,16.83l-9.12-10.31v20.34a105.89,105.89,0,0,0-15.9,28.4l-11.73-8.45Z"/><path class="cls-1" d="M316.4,257.83h6.67c4.84-35.94,31.28-63.42,63.17-63.42s58.34,27.48,63.17,63.42h6.1c-5.19-39.73-34.36-70.15-69.55-70.15S321.6,218.11,316.4,257.83Z"/><path class="cls-1" d="M140.55,252.73q-.46,2.52-.75,5.1h19.43c4-26,26-45.88,52.59-45.88s48.56,19.88,52.59,45.88h19.44a75.08,75.08,0,0,0-6.48-23.16l10.51-2.83-14.38-4.42A74,74,0,0,0,258,209.27l7.76-8.51-17,1.83a71.16,71.16,0,0,0-22.83-8.93l1.72-10.88-12,9.57c-1.27-.07-2.54-.1-3.83-.1A71.4,71.4,0,0,0,197,193.81l-3.6-11-5.84,13.74a72,72,0,0,0-21.23,12.18l-7.59-7.46V216a74.52,74.52,0,0,0-13.24,20.55l-9.77-6.11Z"/><path class="cls-1" d="M153.68,257.83h5.55c4-26,26-45.88,52.59-45.88s48.56,19.88,52.59,45.88h5.08c-4.32-28.74-28.6-50.74-57.9-50.74S158,229.1,153.68,257.83Z"/><path class="cls-1" d="M488.44,254.38q-.31,1.71-.5,3.45h13c2.7-17.59,17.45-31,35.24-31s32.55,13.45,35.24,31h13a51.19,51.19,0,0,0-4.34-15.67l7-1.92-9.63-3A50,50,0,0,0,567.18,225l5.2-5.76L561,220.44a47.42,47.42,0,0,0-15.3-6l1.15-7.36-8,6.48c-.85,0-1.7-.07-2.56-.07a47.41,47.41,0,0,0-10,1.06L523.84,207l-3.91,9.3a48.12,48.12,0,0,0-14.23,8.24l-5.09-5v10a50.49,50.49,0,0,0-8.87,13.91l-6.55-4.14Z"/><path class="cls-1" d="M497.24,257.83H501c2.7-17.59,17.45-31,35.24-31s32.55,13.45,35.24,31h3.4c-2.9-19.45-19.17-34.34-38.81-34.34S500.14,238.38,497.24,257.83Z"/><rect class="cls-1" x="364.11" y="265.02" width="44.17" height="17.66" transform="translate(772.39 547.69) rotate(-180)"/><rect class="cls-1" x="375.29" y="279" width="21.8" height="28.31" transform="translate(772.39 586.3) rotate(-180)"/><rect class="cls-1" x="180.79" y="265.02" width="44.17" height="17.66" transform="translate(405.75 547.69) rotate(-180)"/><rect class="cls-1" x="191.98" y="279" width="21.8" height="28.31" transform="translate(405.75 586.3) rotate(-180)"/><polygon class="cls-1" points="612.59 253.65 648.92 220.31 627.55 253.65 612.59 253.65"/><path class="cls-1" d="M20,210.47c1.6,0,2.31.71,2.5,2.42a11.91,11.91,0,0,0,2.46,5.34c.42.59.87,1.26,1.73,1s.87-1.05,1.05-1.76c.1-.41-.21-.9.39-1.3a14,14,0,0,1,2.63,3.57c1.13,2.19,3.06,1.59,4.76,1.82.34,0,.63-.32.82-.64.68-1.21,1.33-.7,2,0,.83.9,1.68,1.8,2.47,2.75a3.9,3.9,0,0,0,2.57,1.42c1.56.2,3.18-.09,4.65.56s2.78,1.45,4.18,2.2c.54-.6.37-1.4.59-2.06.7-2.12,1.89-2.87,3.92-2.15,1.56.55,3,1.36,4.53,2,1,.39,2,.95,3,0-.48-1.37-1.78-2.15-2.2-3.51a18.84,18.84,0,0,0,5.23,1c5.37.41,11.59-.27,9.73-.81-2.56-.73-6.26-4.41-6.26-4.41,6,.48,12.84-2.64,12.84-2.64-3.89,0-9.39-2.63-9.39-2.63,5.37.72,13.06-2,13.06-2-2.61-1.19-5.65-.79-7.86-2.88.08-1,1.12-1.44,1.37-2.48a29.59,29.59,0,0,0-5.06-.27,9.77,9.77,0,0,1-2.32-.19c-.55-.17-1.72.06-1.34-1.31,0-.14-.62-.54-1-.72-3-1.45-5.91-2.94-9.3-3.09-.86,0-2.15,0-2.17-1.25s1.25-1.25,2.13-1.33c3.69-.38,7.41-.23,11.11-.27a9.08,9.08,0,0,0,2.32-.25c-5.11-3.14-10.86-3.66-16.72-4.47.95-2.06-1.1-2.08-2-3,1.66-1.43,3.53-1.1,5.36-1-1.36-3.87-3.31-5-6.89-4-1.45.38-2.88.87-4.3,1.37a2.08,2.08,0,0,1-2.37-.37,6.15,6.15,0,0,0-1.43-1c-2.12-1.11-3.78-.75-5.33,1.12-.38.45-.71.93-1,1.42a2.22,2.22,0,0,1-2.26,1.17c-2.35-.14-4.16,1.39-5.59,3.16-1.27,1.6-1.3,1.78-2.86.79a4.37,4.37,0,0,0-4.07-.45,9.85,9.85,0,0,1-3.31.86c-.86,0-1.18.72-1.68,1.2a13.23,13.23,0,0,0-.49,3.49c.08,3.37,2.69,5.27,5.52,3.68,1.83-1,2.87-.41,4.09.74a10.65,10.65,0,0,1,3.18,4.44,13.06,13.06,0,0,1-6.43.15.77.77,0,0,1-.45-.4c-.72-1.41-1.93-.92-3-.77a2.91,2.91,0,0,0-2.44,2.18A14.63,14.63,0,0,0,20,210.47Zm33.83-10.14a1.53,1.53,0,0,1-2.26-1.19,1.88,1.88,0,1,1,3.6-1.12A1.79,1.79,0,0,1,53.81,200.33Zm-.45,4.81a1.81,1.81,0,0,1,1.14-2.43,1.82,1.82,0,0,1,2.41,1.14,1.8,1.8,0,0,1-1.24,2.37A1.53,1.53,0,0,1,53.36,205.15Zm-1,3.64A1.87,1.87,0,0,1,54.8,210a2.07,2.07,0,0,1-1.43,2.56,1.8,1.8,0,0,1-2.3-1.39A1.76,1.76,0,0,1,52.37,208.79ZM47.31,214a1.7,1.7,0,0,1,2.38,1.15,1.93,1.93,0,0,1-1.2,2.63A2,2,0,0,1,46,216.61,2,2,0,0,1,47.31,214Zm-9.79-19.34a1.86,1.86,0,0,1,2.35,1.3,1.72,1.72,0,0,1-1.27,2.34,1.84,1.84,0,0,1-2.4-1.19A2.18,2.18,0,0,1,37.53,194.66Z"/><rect class="cls-1" x="2.44" y="251.32" width="676.75" height="20.38" transform="translate(681.64 523.02) rotate(-180)"/></svg>