<svg id="Layer_1" data-name="Layer 1" xmlns="http://www.w3.org/2000/svg" xmlns:xlink="http://www.w3.org/1999/xlink" viewBox="0 0 686.27 320.79"><defs><style>.cls-1,.cls-2,.cls-3{fill:#fff;}.cls-1,.cls-11,.cls-13,.cls-17,.cls-2{stroke:#647eb2;}.cls-1,.cls-11,.cls-13,.cls-17,.cls-2,.cls-20{stroke-miterlimit:10;}.cls-17,.cls-2{stroke-width:2px;}.cls-4{clip-path:url(#clip-path);}.cls-5{opacity:0.68;}.cls-6{opacity:0.89;}.cls-7{opacity:0.34;}.cls-8{opacity:0.53;}.cls-9{opacity:0.39;}.cls-10{opacity:0.14;}.cls-11,.cls-13,.cls-17,.cls-20{fill:none;}.cls-12{clip-path:url(#clip-path-2);}.cls-13{font-size:9.64px;stroke-width:0.75px;font-family:MyriadPro-Regular, Myriad Pro;}.cls-14{letter-spacing:-0.03em;}.cls-15{letter-spacing:0em;}.cls-16{fill:#8fa8cc;}.cls-18{opacity:0.57;}.cls-19{fill:#647eb2;}.cls-20{stroke:#000;}.cls-21{opacity:0.75;}</style><clipPath id="clip-path" transform="translate(-5.44 -9.6)"><path class="cls-1" d="M183.15,192.19c.9-5.32,1.09-10.71,1.66-16.06,1.13-10.61,2.11-21.24,3.23-31.86.91-8.58,1.91-17.16,2.91-25.73.78-6.73,1.91-13.41,3-20.1,1.53-9.72,2.91-19.46,4.33-29.19Q200.61,53,203,36.74c.68-4.68,1.32-9.37,2-14.05.15-1-.13-2.5,1.44-2.59,1.4-.08,2.18,1,2.46,2.25.42,1.9.74,3.82,1,5.75,1.67,13.17,3.35,26.33,4.94,39.51,1.26,10.51,2.4,21,3.56,31.54,1.26,11.44,2.54,22.88,3.69,34.33q1.62,16.21,3,32.45c1.11,13,2.11,26.1,3.15,39.14.13,1.66.25,3.33.37,5a5.22,5.22,0,0,0-.07.83c.88,13,1.48,25.94,1.69,38.93,0,.65-.12,1.29-.11,1.94.21,12.68.13,25.35-1.33,38-.49,2.15-1,4.3-1.47,6.44-.55,2.32-1.81,4.44-1.92,6.88a27.69,27.69,0,0,0-2.07,5.67q-15.52,0-31,0c-2.31,0-4.61.09-6.92.13l-11.71-.24.39-5.73c.31-4.38,1-8.73.87-13.14A89.33,89.33,0,0,0,175.93,279c.43-5.27.8-10.55,1.24-15.82q1.53-18,3.11-36.06c.7-8,1.5-16.08,2.1-24.13C182.66,199.41,183.34,195.83,183.15,192.19Z"/></clipPath><clipPath id="clip-path-2" transform="translate(-5.44 -9.6)"><path class="cls-1" d="M145,165.13c.64-7,1.23-14.05,1.94-21.07,1-9.7,2-19.39,3.11-29.07s2.3-19.35,3.56-29c1.9-14.54,3.93-29,7.63-43.28a15.28,15.28,0,0,1,9.34-10.88,166.52,166.52,0,0,1,25.9-8.43c3-.78,6.08-1.44,9.52-2.25a103.79,103.79,0,0,0-3.62,15.42c-2,11.33-3.7,22.71-5.27,34.11q-2.16,15.72-4.23,31.45c-1.24,9.57-2.41,19.15-3.57,28.74-1.25,10.32-2.5,20.64-3.67,31-1.14,10.05-2.18,20.11-3.27,30.17-1.27,9.38-2.07,18.82-3,28.24-.73,7.11-1.45,14.22-2,21.34-.51,6.2-1.23,12.4-1.17,18.62,0,4.27-.22,8.52-.48,12.78-.39,6.2-.67,12.42-1,18.62a22.32,22.32,0,0,0-.37,4.12l-.13,0,.12,0-.14,3.27a4.4,4.4,0,0,0-.25,2.88l-.07,2.85-.47,5.69c-8,.2-15.91.17-23.86,0l-2.4-6.55-2.42-12.37q-.59-5.81-1.18-11.62c-.53-5.35-.88-10.72-1.29-16.08a212.83,212.83,0,0,1-.73-25.32c.51-11.87.67-23.75,1.41-35.61.39-6.3.5-12.62.85-18.92S144.57,171.42,145,165.13Z"/></clipPath></defs><title>Route 1- Han bridge-01.</title><path class="cls-1" d="M133.55,307.94c-1.35.06-2.69.16-4,.16H24.27c-1,0-2-.07-3-.11,0-5.66,0-11.31,0-17,0-2.42,0-2.43,4.37-2.44l37.12-.07c14.54.16,29.08.18,43.62,0l5.52,0,21.4.24Q133.42,298.32,133.55,307.94Z" transform="translate(-5.44 -9.6)"/><path class="cls-2" d="M144.51,165.13c.64-7,1.23-14.05,1.94-21.07,1-9.7,2-19.39,3.11-29.07s2.3-19.35,3.56-29c1.9-14.54,3.93-29,7.63-43.28a15.28,15.28,0,0,1,9.34-10.88A166.52,166.52,0,0,1,196,23.39c3-.78,6.08-1.44,9.52-2.25a103.79,103.79,0,0,0-3.62,15.42c-2,11.33-3.7,22.71-5.27,34.11q-2.16,15.72-4.23,31.45c-1.24,9.57-2.41,19.15-3.57,28.74-1.25,10.32-2.5,20.64-3.67,31C184,171.88,183,181.94,181.89,192c-1.27,9.38-2.07,18.82-3,28.24-.73,7.11-1.45,14.22-2,21.34-.51,6.2-1.23,12.4-1.17,18.62,0,4.27-.22,8.52-.48,12.78-.39,6.2-.67,12.42-1,18.62a22.32,22.32,0,0,0-.37,4.12l-.13,0,.12,0-.14,3.27a4.4,4.4,0,0,0-.25,2.88l-.07,2.85-.47,5.69c-8,.2-15.91.17-23.86,0l-2.4-6.55-2.42-12.37q-.59-5.81-1.18-11.62c-.53-5.35-.88-10.72-1.29-16.08a212.83,212.83,0,0,1-.73-25.32c.51-11.87.67-23.75,1.41-35.61.39-6.3.5-12.62.85-18.92S144.08,171.42,144.51,165.13Z" transform="translate(-5.44 -9.6)"/><path class="cls-2" d="M183.92,193.14c.9-5.32,1.09-10.71,1.66-16.06,1.13-10.61,2.11-21.24,3.23-31.86.91-8.58,1.91-17.16,2.91-25.73.78-6.73,1.91-13.41,3-20.1,1.53-9.72,2.91-19.46,4.33-29.19q2.38-16.25,4.72-32.51c.68-4.68,1.32-9.37,2-14.05.15-1-.13-2.5,1.44-2.59,1.4-.08,2.18,1,2.46,2.25.42,1.9.74,3.82,1,5.75,1.67,13.17,3.35,26.33,4.94,39.51,1.26,10.51,2.4,21,3.56,31.54,1.26,11.44,2.54,22.88,3.69,34.33q1.62,16.21,3,32.45c1.11,13,2.11,26.1,3.15,39.14.13,1.66.25,3.33.37,5a5.22,5.22,0,0,0-.07.83c.88,13,1.48,25.94,1.69,38.93,0,.65-.12,1.29-.11,1.94.21,12.68.13,25.35-1.33,38-.49,2.15-1,4.3-1.47,6.44-.55,2.32-1.81,4.44-1.92,6.88a27.69,27.69,0,0,0-2.07,5.67q-15.52,0-31,0c-2.31,0-4.61.09-6.92.13l-11.71-.24.39-5.73c.31-4.38,1-8.73.87-13.14A89.33,89.33,0,0,0,176.7,280c.43-5.27.8-10.55,1.24-15.82q1.53-18,3.11-36.06c.7-8,1.5-16.08,2.1-24.13C183.42,200.36,184.1,196.78,183.92,193.14Z" transform="translate(-5.44 -9.6)"/><path class="cls-3" d="M183.15,192.19c.9-5.32,1.09-10.71,1.66-16.06,1.13-10.61,2.11-21.24,3.23-31.86.91-8.58,1.91-17.16,2.91-25.73.78-6.73,1.91-13.41,3-20.1,1.53-9.72,2.91-19.46,4.33-29.19Q200.61,53,203,36.74c.68-4.68,1.32-9.37,2-14.05.15-1-.13-2.5,1.44-2.59,1.4-.08,2.18,1,2.46,2.25.42,1.9.74,3.82,1,5.75,1.67,13.17,3.35,26.33,4.94,39.51,1.26,10.51,2.4,21,3.56,31.54,1.26,11.44,2.54,22.88,3.69,34.33q1.62,16.21,3,32.45c1.11,13,2.11,26.1,3.15,39.14.13,1.66.25,3.33.37,5a5.22,5.22,0,0,0-.07.83c.88,13,1.48,25.94,1.69,38.93,0,.65-.12,1.29-.11,1.94.21,12.68.13,25.35-1.33,38-.49,2.15-1,4.3-1.47,6.44-.55,2.32-1.81,4.44-1.92,6.88a27.69,27.69,0,0,0-2.07,5.67q-15.52,0-31,0c-2.31,0-4.61.09-6.92.13l-11.71-.24.39-5.73c.31-4.38,1-8.73.87-13.14A89.33,89.33,0,0,0,175.93,279c.43-5.27.8-10.55,1.24-15.82q1.53-18,3.11-36.06c.7-8,1.5-16.08,2.1-24.13C182.66,199.41,183.34,195.83,183.15,192.19Z" transform="translate(-5.44 -9.6)"/><g class="cls-4"><g class="cls-5"><rect class="cls-1" x="264.33" y="115.64" width="14.65" height="3.6"/></g><g class="cls-5"><rect class="cls-1" x="239.05" y="219.69" width="18.44" height="5.27"/></g><g class="cls-5"><rect class="cls-1" x="279.11" y="204.61" width="37.28" height="3.6"/></g><g class="cls-5"><rect class="cls-1" x="245.89" y="125.85" width="33.21" height="3.6"/></g><g class="cls-5"><rect class="cls-1" x="266.74" y="135.49" width="24.13" height="3.6"/></g><g class="cls-5"><rect class="cls-1" x="239.05" y="239.54" width="20.85" height="5.27"/></g><g class="cls-5"><rect class="cls-1" x="239.05" y="170.99" width="18.44" height="5.27"/></g><g class="cls-5"><rect class="cls-1" x="245.89" y="155.35" width="39.22" height="3.6"/></g><g class="cls-5"><rect class="cls-1" x="259.52" y="244.32" width="18.38" height="3.6"/></g><g class="cls-5"><rect class="cls-1" x="255.49" y="165.56" width="13.63" height="3.6"/></g><g class="cls-5"><rect class="cls-1" x="293.81" y="253.96" width="27.31" height="3.6"/></g><g class="cls-5"><rect class="cls-1" x="296.54" y="175.2" width="21.78" height="3.6"/></g><g class="cls-5"><rect class="cls-1" x="303.44" y="264.17" width="17.68" height="3.6"/></g><g class="cls-5"><rect class="cls-1" x="269.12" y="185.41" width="14.8" height="3.6"/></g><g class="cls-5"><rect class="cls-1" x="261.92" y="264.17" width="21.99" height="3.6"/></g><g class="cls-6"><rect class="cls-1" x="286.47" y="115.64" width="12.03" height="3.6"/></g><g class="cls-5"><rect class="cls-1" x="260.48" y="194.4" width="26" height="3.6"/></g><g class="cls-5"><rect class="cls-1" x="299.72" y="214.25" width="21.91" height="3.6"/></g><g class="cls-5"><rect class="cls-1" x="296.46" y="135.49" width="16.57" height="3.6"/></g><g class="cls-5"><rect class="cls-1" x="260.48" y="214.25" width="28.41" height="3.6"/></g><g class="cls-6"><rect class="cls-1" x="273.03" y="145.7" width="24.71" height="3.6"/></g><g class="cls-5"><rect class="cls-1" x="299.7" y="155.35" width="16.69" height="3.6"/></g><g class="cls-6"><rect class="cls-1" x="281.67" y="244.32" width="10.82" height="3.6"/></g><g class="cls-5"><rect class="cls-1" x="231.84" y="175.2" width="53.65" height="3.6"/></g><g class="cls-6"><rect class="cls-1" x="298.5" y="185.41" width="25.25" height="3.6"/></g><g class="cls-5"><rect class="cls-1" x="284.07" y="264.17" width="14.43" height="3.6"/></g><g class="cls-5"><rect class="cls-1" x="276.52" y="105.63" width="50.33" height="3.17"/></g><g class="cls-7"><rect class="cls-1" x="245.89" y="105.63" width="22.82" height="3.17"/></g><g class="cls-7"><rect class="cls-1" x="270.84" y="115.7" width="5.42" height="3.48"/></g><g class="cls-7"><rect class="cls-1" x="268.13" y="145.76" width="5.42" height="3.48"/></g><g class="cls-7"><rect class="cls-1" x="245.89" y="120.62" width="12.78" height="3.77"/></g><rect class="cls-1" x="276.52" y="96.38" width="50.33" height="4.01"/><rect class="cls-1" x="245.89" y="96.38" width="30.62" height="4.01"/><rect class="cls-1" x="245.67" y="261.61" width="10.95" height="3.62"/><rect class="cls-1" x="236.74" y="13.17" width="3.87" height="3.62"/><rect class="cls-1" x="227.1" y="183.31" width="9.64" height="3.62"/><rect class="cls-1" x="204.94" y="13.17" width="7.54" height="3.62"/><rect class="cls-1" x="202.31" y="261.61" width="9.48" height="3.62"/><g class="cls-8"><rect class="cls-1" x="173.88" y="183.31" width="15.48" height="3.62"/></g><g class="cls-8"><rect class="cls-1" x="162.31" y="13.17" width="15.89" height="3.62"/></g><rect class="cls-1" x="162.25" y="183.31" width="8.7" height="3.62"/><rect class="cls-1" x="245.67" y="193.52" width="12.41" height="3.62"/><rect class="cls-1" x="220.88" y="23.38" width="9.63" height="3.62"/><rect class="cls-1" x="202.31" y="271.82" width="18.57" height="3.62"/><g class="cls-8"><rect class="cls-1" x="187.37" y="23.38" width="9.5" height="3.62"/></g><g class="cls-8"><rect class="cls-1" x="162.25" y="23.38" width="6.88" height="3.62"/></g><rect class="cls-1" x="239.45" y="281.47" width="17.17" height="3.62"/><rect class="cls-1" x="227.1" y="33.02" width="5.71" height="3.62"/><rect class="cls-1" x="196.75" y="203.16" width="12.44" height="3.62"/><rect class="cls-1" x="197.12" y="33.02" width="17.54" height="3.62"/><g class="cls-8"><rect class="cls-1" x="172.08" y="33.02" width="7.82" height="3.62"/></g><rect class="cls-1" x="251.7" y="43.23" width="4.92" height="3.62"/><rect class="cls-1" x="242.99" y="291.68" width="8.71" height="3.62"/><rect class="cls-1" x="216.15" y="43.23" width="7.35" height="3.62"/><rect class="cls-1" x="202.52" y="213.37" width="12.35" height="3.62"/><rect class="cls-1" x="196.87" y="43.23" width="11.66" height="3.62"/><rect class="cls-1" x="170.95" y="291.68" width="13.05" height="3.62"/><g class="cls-8"><rect class="cls-1" x="162.25" y="43.23" width="8.7" height="3.62"/></g><rect class="cls-1" x="251.7" y="144.25" width="4.92" height="3.62"/><rect class="cls-1" x="227.1" y="223.01" width="24.6" height="3.62"/><rect class="cls-1" x="214.66" y="144.25" width="12.44" height="3.62"/><rect class="cls-1" x="208.53" y="144.25" width="6.12" height="3.62"/><g class="cls-9"><rect class="cls-1" x="189.1" y="223.01" width="19.43" height="3.62"/></g><g class="cls-10"><rect class="cls-1" x="177.19" y="301.32" width="5.1" height="3.62"/></g><g class="cls-8"><rect class="cls-1" x="162.25" y="52.87" width="6.88" height="3.62"/></g><rect class="cls-1" x="239.44" y="233.22" width="17.17" height="3.62"/><rect class="cls-1" x="223.7" y="291.68" width="6.13" height="3.62"/><rect class="cls-1" x="229.94" y="154.46" width="3.38" height="3.62"/><rect class="cls-1" x="198.91" y="291.68" width="21.41" height="3.62"/><rect class="cls-1" x="168.68" y="233.22" width="5.11" height="3.62"/><g class="cls-8"><rect class="cls-1" x="166.78" y="63.08" width="6.43" height="3.62"/></g><rect class="cls-1" x="248.66" y="164.11" width="7.96" height="3.62"/><rect class="cls-1" x="227.1" y="242.87" width="21.56" height="3.62"/><rect class="cls-1" x="223.7" y="164.11" width="3.4" height="3.62"/><g class="cls-9"><rect class="cls-1" x="183.99" y="242.87" width="12.88" height="3.62"/></g><g class="cls-8"><rect class="cls-1" x="162.25" y="164.11" width="4.53" height="3.62"/></g><rect class="cls-1" x="245.67" y="174.32" width="10.95" height="3.62"/><rect class="cls-1" x="220.88" y="253.08" width="12.44" height="3.62"/><g class="cls-9"><rect class="cls-1" x="178.11" y="253.08" width="18.76" height="3.62"/></g><g class="cls-10"><rect class="cls-1" x="169.81" y="253.08" width="6.81" height="3.62"/></g><rect class="cls-1" x="247.04" y="13.17" width="5.52" height="3.62"/><rect class="cls-1" x="233.98" y="183.31" width="9.64" height="3.62"/><rect class="cls-1" x="218.67" y="13.17" width="15.31" height="3.62"/><rect class="cls-1" x="209.19" y="261.61" width="9.48" height="3.62"/><rect class="cls-1" x="197.01" y="183.31" width="15.48" height="3.62"/><g class="cls-10"><rect class="cls-1" x="182.91" y="13.17" width="10.8" height="3.62"/></g><g class="cls-10"><rect class="cls-1" x="169.13" y="183.31" width="8.7" height="3.62"/></g><rect class="cls-1" x="234.91" y="23.38" width="9.63" height="3.62"/><rect class="cls-1" x="209.19" y="271.82" width="18.57" height="3.62"/><rect class="cls-1" x="197.01" y="23.38" width="12.18" height="3.62"/><g class="cls-8"><rect class="cls-1" x="181.23" y="193.52" width="15.64" height="3.62"/></g><g class="cls-10"><rect class="cls-1" x="173.79" y="23.38" width="7.45" height="3.62"/></g><rect class="cls-1" x="236.84" y="33.02" width="12.35" height="3.62"/><rect class="cls-1" x="221.54" y="203.16" width="12.44" height="3.62"/><rect class="cls-1" x="197.12" y="33.02" width="24.42" height="3.62"/><g class="cls-9"><rect class="cls-1" x="186.78" y="203.16" width="10.34" height="3.62"/></g><g class="cls-10"><rect class="cls-1" x="184.38" y="33.02" width="7.82" height="3.62"/></g><g class="cls-10"><rect class="cls-1" x="169.13" y="203.16" width="9.84" height="3.62"/></g><rect class="cls-1" x="227.76" y="43.23" width="22.11" height="3.62"/><rect class="cls-1" x="212.88" y="54.35" width="3.87" height="3.62"/><rect class="cls-1" x="241.01" y="54.35" width="7.54" height="3.62"/><rect class="cls-1" x="222.99" y="64.56" width="9.63" height="3.62"/><rect class="cls-1" x="220.69" y="74.2" width="5.71" height="3.62"/><rect class="cls-1" x="238.84" y="74.2" width="18.88" height="3.62"/><rect class="cls-1" x="229.99" y="84.41" width="7.35" height="3.62"/><rect class="cls-1" x="244.96" y="84.41" width="13" height="3.62"/><rect class="cls-1" x="200.94" y="54.35" width="5.52" height="3.62"/><rect class="cls-1" x="219.51" y="54.35" width="15.31" height="3.62"/><rect class="cls-1" x="208.96" y="64.56" width="9.63" height="3.62"/><rect class="cls-1" x="244.31" y="64.56" width="13.52" height="3.62"/><rect class="cls-1" x="204.3" y="74.2" width="12.35" height="3.62"/><rect class="cls-1" x="231.96" y="74.2" width="25.76" height="3.62"/><rect class="cls-1" x="203.63" y="84.41" width="22.11" height="3.62"/><rect class="cls-1" x="233.03" y="213.37" width="24.76" height="3.62"/><g class="cls-10"><rect class="cls-1" x="177.83" y="291.68" width="13.05" height="3.62"/></g><g class="cls-9"><rect class="cls-1" x="188.13" y="43.23" width="8.7" height="3.62"/></g><rect class="cls-1" x="232.13" y="144.25" width="6.12" height="3.62"/><rect class="cls-1" x="196.75" y="223.01" width="18.66" height="3.62"/><g class="cls-9"><rect class="cls-1" x="184.07" y="301.32" width="5.1" height="3.62"/></g><g class="cls-10"><rect class="cls-1" x="173.89" y="52.87" width="14.94" height="3.62"/></g><g class="cls-8"><rect class="cls-1" x="162.25" y="84.41" width="9.5" height="3.62"/></g><g class="cls-8"><rect class="cls-1" x="189.99" y="84.41" width="6.88" height="3.62"/></g><g class="cls-8"><rect class="cls-1" x="179.22" y="94.06" width="7.82" height="3.62"/></g><g class="cls-8"><rect class="cls-1" x="188.18" y="104.26" width="8.7" height="3.62"/></g><g class="cls-8"><rect class="cls-1" x="189.99" y="113.91" width="6.88" height="3.62"/></g><g class="cls-8"><rect class="cls-1" x="185.92" y="124.12" width="6.43" height="3.62"/></g><g class="cls-10"><rect class="cls-1" x="165.41" y="74.2" width="10.8" height="3.62"/></g><g class="cls-10"><rect class="cls-1" x="177.89" y="84.41" width="7.45" height="3.62"/></g><g class="cls-10"><rect class="cls-1" x="166.93" y="94.06" width="7.82" height="3.62"/></g><g class="cls-9"><rect class="cls-1" x="162.29" y="104.26" width="8.7" height="3.62"/></g><g class="cls-10"><rect class="cls-1" x="170.29" y="113.91" width="14.94" height="3.62"/></g><rect class="cls-1" x="236.82" y="154.46" width="3.38" height="3.62"/><g class="cls-10"><rect class="cls-1" x="175.56" y="233.22" width="5.11" height="3.62"/></g><rect class="cls-1" x="233.98" y="242.87" width="21.56" height="3.62"/><rect class="cls-1" x="211.86" y="164.11" width="18.72" height="3.62"/><g class="cls-9"><rect class="cls-1" x="174.95" y="164.11" width="15.92" height="3.62"/></g><rect class="cls-1" x="227.76" y="253.08" width="12.44" height="3.62"/><rect class="cls-1" x="203.76" y="174.32" width="24" height="3.62"/><rect class="cls-1" x="227.1" y="133.6" width="9.64" height="3.62"/><rect class="cls-1" x="251.7" y="94.54" width="4.92" height="3.62"/><rect class="cls-1" x="214.66" y="94.54" width="12.44" height="3.62"/><rect class="cls-1" x="208.53" y="94.54" width="6.12" height="3.62"/><rect class="cls-1" x="229.94" y="104.75" width="3.38" height="3.62"/><rect class="cls-1" x="248.66" y="114.39" width="7.96" height="3.62"/><rect class="cls-1" x="223.7" y="114.39" width="3.4" height="3.62"/><rect class="cls-1" x="245.67" y="124.6" width="10.95" height="3.62"/><rect class="cls-1" x="233.98" y="133.6" width="9.64" height="3.62"/><rect class="cls-1" x="197.01" y="133.6" width="15.48" height="3.62"/><rect class="cls-1" x="232.13" y="94.54" width="6.12" height="3.62"/><rect class="cls-1" x="236.82" y="104.75" width="3.38" height="3.62"/><rect class="cls-1" x="211.86" y="114.39" width="18.72" height="3.62"/><rect class="cls-1" x="203.76" y="124.6" width="24" height="3.62"/><g class="cls-9"><rect class="cls-1" x="188.53" y="174.32" width="6.88" height="3.62"/></g><rect class="cls-1" x="196.75" y="2.93" width="61.32" height="3.62"/><polygon class="cls-1" points="242.56 298.35 242.56 298.35 242.5 298.35 242.5 298.35 242.56 298.35"/></g><path class="cls-11" d="M183.15,192.19c.9-5.32,1.09-10.71,1.66-16.06,1.13-10.61,2.11-21.24,3.23-31.86.91-8.58,1.91-17.16,2.91-25.73.78-6.73,1.91-13.41,3-20.1,1.53-9.72,2.91-19.46,4.33-29.19Q200.61,53,203,36.74c.68-4.68,1.32-9.37,2-14.05.15-1-.13-2.5,1.44-2.59,1.4-.08,2.18,1,2.46,2.25.42,1.9.74,3.82,1,5.75,1.67,13.17,3.35,26.33,4.94,39.51,1.26,10.51,2.4,21,3.56,31.54,1.26,11.44,2.54,22.88,3.69,34.33q1.62,16.21,3,32.45c1.11,13,2.11,26.1,3.15,39.14.13,1.66.25,3.33.37,5a5.22,5.22,0,0,0-.07.83c.88,13,1.48,25.94,1.69,38.93,0,.65-.12,1.29-.11,1.94.21,12.68.13,25.35-1.33,38-.49,2.15-1,4.3-1.47,6.44-.55,2.32-1.81,4.44-1.92,6.88a27.69,27.69,0,0,0-2.07,5.67q-15.52,0-31,0c-2.31,0-4.61.09-6.92.13l-11.71-.24.39-5.73c.31-4.38,1-8.73.87-13.14A89.33,89.33,0,0,0,175.93,279c.43-5.27.8-10.55,1.24-15.82q1.53-18,3.11-36.06c.7-8,1.5-16.08,2.1-24.13C182.66,199.41,183.34,195.83,183.15,192.19Z" transform="translate(-5.44 -9.6)"/><path class="cls-3" d="M145,165.13c.64-7,1.23-14.05,1.94-21.07,1-9.7,2-19.39,3.11-29.07s2.3-19.35,3.56-29c1.9-14.54,3.93-29,7.63-43.28a15.28,15.28,0,0,1,9.34-10.88,166.52,166.52,0,0,1,25.9-8.43c3-.78,6.08-1.44,9.52-2.25a103.79,103.79,0,0,0-3.62,15.42c-2,11.33-3.7,22.71-5.27,34.11q-2.16,15.72-4.23,31.45c-1.24,9.57-2.41,19.15-3.57,28.74-1.25,10.32-2.5,20.64-3.67,31-1.14,10.05-2.18,20.11-3.27,30.17-1.27,9.38-2.07,18.82-3,28.24-.73,7.11-1.45,14.22-2,21.34-.51,6.2-1.23,12.4-1.17,18.62,0,4.27-.22,8.52-.48,12.78-.39,6.2-.67,12.42-1,18.62a22.32,22.32,0,0,0-.37,4.12l-.13,0,.12,0-.14,3.27a4.4,4.4,0,0,0-.25,2.88l-.07,2.85-.47,5.69c-8,.2-15.91.17-23.86,0l-2.4-6.55-2.42-12.37q-.59-5.81-1.18-11.62c-.53-5.35-.88-10.72-1.29-16.08a212.83,212.83,0,0,1-.73-25.32c.51-11.87.67-23.75,1.41-35.61.39-6.3.5-12.62.85-18.92S144.57,171.42,145,165.13Z" transform="translate(-5.44 -9.6)"/><g class="cls-12"><g class="cls-5"><rect class="cls-1" x="209.93" y="124.32" width="14.65" height="3.6"/></g><g class="cls-5"><rect class="cls-1" x="184.64" y="228.36" width="18.44" height="5.27"/></g><g class="cls-5"><rect class="cls-1" x="224.7" y="213.29" width="37.28" height="3.6"/></g><g class="cls-5"><rect class="cls-1" x="191.49" y="134.53" width="33.21" height="3.6"/></g><g class="cls-5"><rect class="cls-1" x="212.34" y="144.17" width="24.13" height="3.6"/></g><g class="cls-5"><rect class="cls-1" x="184.64" y="248.21" width="20.85" height="5.27"/></g><g class="cls-5"><rect class="cls-1" x="184.64" y="179.67" width="18.44" height="5.27"/></g><g class="cls-5"><rect class="cls-1" x="191.49" y="164.02" width="39.22" height="3.6"/></g><g class="cls-5"><rect class="cls-1" x="205.12" y="252.99" width="18.38" height="3.6"/></g><g class="cls-5"><rect class="cls-1" x="201.08" y="174.23" width="13.63" height="3.6"/></g><g class="cls-5"><rect class="cls-1" x="239.41" y="262.63" width="27.31" height="3.6"/></g><g class="cls-5"><rect class="cls-1" x="242.14" y="183.88" width="21.78" height="3.6"/></g><g class="cls-5"><rect class="cls-1" x="249.04" y="272.84" width="17.68" height="3.6"/></g><g class="cls-5"><rect class="cls-1" x="214.72" y="194.09" width="14.8" height="3.6"/></g><g class="cls-5"><rect class="cls-1" x="207.52" y="272.84" width="21.99" height="3.6"/></g><g class="cls-6"><rect class="cls-1" x="232.07" y="124.32" width="12.03" height="3.6"/></g><g class="cls-5"><rect class="cls-1" x="206.07" y="203.08" width="26" height="3.6"/></g><g class="cls-5"><rect class="cls-1" x="245.32" y="222.93" width="21.91" height="3.6"/></g><g class="cls-5"><rect class="cls-1" x="242.05" y="144.17" width="16.57" height="3.6"/></g><g class="cls-5"><rect class="cls-1" x="206.07" y="222.93" width="28.41" height="3.6"/></g><g class="cls-6"><rect class="cls-1" x="218.63" y="154.38" width="24.71" height="3.6"/></g><g class="cls-5"><rect class="cls-1" x="245.3" y="164.02" width="16.69" height="3.6"/></g><g class="cls-6"><rect class="cls-1" x="227.26" y="252.99" width="10.82" height="3.6"/></g><g class="cls-5"><rect class="cls-1" x="177.44" y="183.88" width="53.65" height="3.6"/></g><g class="cls-6"><rect class="cls-1" x="244.1" y="194.09" width="25.25" height="3.6"/></g><g class="cls-5"><rect class="cls-1" x="229.67" y="272.84" width="14.43" height="3.6"/></g><g class="cls-5"><rect class="cls-1" x="222.11" y="114.3" width="50.33" height="3.17"/></g><g class="cls-7"><rect class="cls-1" x="191.49" y="114.3" width="22.82" height="3.17"/></g><g class="cls-7"><rect class="cls-1" x="216.44" y="124.38" width="5.42" height="3.48"/></g><g class="cls-7"><rect class="cls-1" x="213.73" y="154.44" width="5.42" height="3.48"/></g><g class="cls-7"><rect class="cls-1" x="191.49" y="129.3" width="12.78" height="3.77"/></g><rect class="cls-1" x="222.11" y="105.06" width="50.33" height="4.01"/><rect class="cls-1" x="191.49" y="105.06" width="30.62" height="4.01"/><rect class="cls-1" x="191.27" y="270.29" width="10.95" height="3.62"/><rect class="cls-1" x="182.34" y="21.84" width="3.87" height="3.62"/><rect class="cls-1" x="172.7" y="191.98" width="9.64" height="3.62"/><rect class="cls-1" x="150.54" y="21.84" width="7.54" height="3.62"/><rect class="cls-1" x="147.91" y="270.29" width="9.48" height="3.62"/><g class="cls-8"><rect class="cls-1" x="119.48" y="191.98" width="15.48" height="3.62"/></g><g class="cls-8"><rect class="cls-1" x="107.91" y="21.84" width="15.89" height="3.62"/></g><rect class="cls-1" x="107.85" y="191.98" width="8.7" height="3.62"/><rect class="cls-1" x="191.27" y="202.19" width="12.41" height="3.62"/><rect class="cls-1" x="166.48" y="32.05" width="9.63" height="3.62"/><rect class="cls-1" x="147.9" y="280.5" width="18.57" height="3.62"/><g class="cls-8"><rect class="cls-1" x="132.97" y="32.05" width="9.5" height="3.62"/></g><g class="cls-8"><rect class="cls-1" x="107.85" y="32.05" width="6.88" height="3.62"/></g><rect class="cls-1" x="185.05" y="290.14" width="17.17" height="3.62"/><rect class="cls-1" x="172.7" y="41.7" width="5.71" height="3.62"/><rect class="cls-1" x="142.35" y="211.84" width="12.44" height="3.62"/><rect class="cls-1" x="142.71" y="41.7" width="17.54" height="3.62"/><g class="cls-8"><rect class="cls-1" x="117.68" y="41.7" width="7.82" height="3.62"/></g><rect class="cls-1" x="197.3" y="51.91" width="4.92" height="3.62"/><rect class="cls-1" x="188.58" y="300.35" width="8.71" height="3.62"/><rect class="cls-1" x="161.75" y="51.91" width="7.35" height="3.62"/><rect class="cls-1" x="148.12" y="222.05" width="12.35" height="3.62"/><rect class="cls-1" x="142.47" y="51.91" width="11.66" height="3.62"/><rect class="cls-1" x="116.55" y="300.35" width="13.05" height="3.62"/><g class="cls-8"><rect class="cls-1" x="107.85" y="51.91" width="8.7" height="3.62"/></g><rect class="cls-1" x="197.3" y="152.93" width="4.92" height="3.62"/><rect class="cls-1" x="172.7" y="231.69" width="24.6" height="3.62"/><rect class="cls-1" x="160.25" y="152.93" width="12.44" height="3.62"/><rect class="cls-1" x="154.13" y="152.93" width="6.12" height="3.62"/><g class="cls-9"><rect class="cls-1" x="134.7" y="231.69" width="19.43" height="3.62"/></g><g class="cls-10"><rect class="cls-1" x="122.78" y="309.99" width="5.1" height="3.62"/></g><g class="cls-8"><rect class="cls-1" x="107.85" y="61.55" width="6.88" height="3.62"/></g><rect class="cls-1" x="185.04" y="241.9" width="17.17" height="3.62"/><rect class="cls-1" x="169.3" y="300.35" width="6.13" height="3.62"/><rect class="cls-1" x="175.54" y="163.14" width="3.38" height="3.62"/><rect class="cls-1" x="144.51" y="300.35" width="21.41" height="3.62"/><rect class="cls-1" x="114.28" y="241.9" width="5.11" height="3.62"/><g class="cls-8"><rect class="cls-1" x="112.37" y="71.76" width="6.43" height="3.62"/></g><rect class="cls-1" x="194.26" y="172.78" width="7.96" height="3.62"/><rect class="cls-1" x="172.69" y="251.54" width="21.56" height="3.62"/><rect class="cls-1" x="169.29" y="172.78" width="3.4" height="3.62"/><g class="cls-9"><rect class="cls-1" x="129.59" y="251.54" width="12.88" height="3.62"/></g><g class="cls-8"><rect class="cls-1" x="107.85" y="172.78" width="4.53" height="3.62"/></g><rect class="cls-1" x="191.27" y="182.99" width="10.95" height="3.62"/><rect class="cls-1" x="166.48" y="261.75" width="12.44" height="3.62"/><g class="cls-9"><rect class="cls-1" x="123.71" y="261.75" width="18.76" height="3.62"/></g><g class="cls-10"><rect class="cls-1" x="115.41" y="261.75" width="6.81" height="3.62"/></g><rect class="cls-1" x="192.63" y="21.84" width="5.52" height="3.62"/><rect class="cls-1" x="179.58" y="191.98" width="9.64" height="3.62"/><rect class="cls-1" x="164.27" y="21.84" width="15.31" height="3.62"/><rect class="cls-1" x="154.79" y="270.29" width="9.48" height="3.62"/><rect class="cls-1" x="142.6" y="191.98" width="15.48" height="3.62"/><g class="cls-10"><rect class="cls-1" x="128.51" y="21.84" width="10.8" height="3.62"/></g><g class="cls-10"><rect class="cls-1" x="114.73" y="191.98" width="8.7" height="3.62"/></g><rect class="cls-1" x="180.5" y="32.05" width="9.63" height="3.62"/><rect class="cls-1" x="154.78" y="280.5" width="18.57" height="3.62"/><rect class="cls-1" x="142.6" y="32.05" width="12.18" height="3.62"/><g class="cls-8"><rect class="cls-1" x="126.83" y="202.19" width="15.64" height="3.62"/></g><g class="cls-10"><rect class="cls-1" x="119.38" y="32.05" width="7.45" height="3.62"/></g><rect class="cls-1" x="182.44" y="41.7" width="12.35" height="3.62"/><rect class="cls-1" x="167.14" y="211.84" width="12.44" height="3.62"/><rect class="cls-1" x="142.71" y="41.7" width="24.42" height="3.62"/><g class="cls-9"><rect class="cls-1" x="132.38" y="211.84" width="10.34" height="3.62"/></g><g class="cls-10"><rect class="cls-1" x="129.98" y="41.7" width="7.82" height="3.62"/></g><g class="cls-10"><rect class="cls-1" x="114.73" y="211.84" width="9.84" height="3.62"/></g><rect class="cls-1" x="173.36" y="51.91" width="22.11" height="3.62"/><rect class="cls-1" x="158.48" y="63.03" width="3.87" height="3.62"/><rect class="cls-1" x="186.61" y="63.03" width="7.54" height="3.62"/><rect class="cls-1" x="168.59" y="73.24" width="9.63" height="3.62"/><rect class="cls-1" x="166.29" y="82.88" width="5.71" height="3.62"/><rect class="cls-1" x="184.44" y="82.88" width="18.88" height="3.62"/><rect class="cls-1" x="175.59" y="93.09" width="7.35" height="3.62"/><rect class="cls-1" x="190.56" y="93.09" width="13" height="3.62"/><rect class="cls-1" x="146.54" y="63.03" width="5.52" height="3.62"/><rect class="cls-1" x="165.11" y="63.03" width="15.31" height="3.62"/><rect class="cls-1" x="154.56" y="73.24" width="9.63" height="3.62"/><rect class="cls-1" x="189.91" y="73.24" width="13.52" height="3.62"/><rect class="cls-1" x="149.9" y="82.88" width="12.35" height="3.62"/><rect class="cls-1" x="177.56" y="82.88" width="25.76" height="3.62"/><rect class="cls-1" x="149.23" y="93.09" width="22.11" height="3.62"/><rect class="cls-1" x="178.63" y="222.05" width="24.76" height="3.62"/><g class="cls-10"><rect class="cls-1" x="123.43" y="300.35" width="13.05" height="3.62"/></g><g class="cls-9"><rect class="cls-1" x="133.73" y="51.91" width="8.7" height="3.62"/></g><rect class="cls-1" x="177.73" y="152.93" width="6.12" height="3.62"/><rect class="cls-1" x="142.35" y="231.69" width="18.66" height="3.62"/><g class="cls-9"><rect class="cls-1" x="129.66" y="309.99" width="5.1" height="3.62"/></g><g class="cls-10"><rect class="cls-1" x="119.49" y="61.55" width="14.94" height="3.62"/></g><g class="cls-8"><rect class="cls-1" x="107.85" y="93.09" width="9.5" height="3.62"/></g><g class="cls-8"><rect class="cls-1" x="135.59" y="93.09" width="6.88" height="3.62"/></g><g class="cls-8"><rect class="cls-1" x="124.82" y="102.73" width="7.82" height="3.62"/></g><g class="cls-8"><rect class="cls-1" x="133.77" y="112.94" width="8.7" height="3.62"/></g><g class="cls-8"><rect class="cls-1" x="135.59" y="122.58" width="6.88" height="3.62"/></g><g class="cls-8"><rect class="cls-1" x="131.52" y="132.79" width="6.43" height="3.62"/></g><g class="cls-10"><rect class="cls-1" x="111.01" y="82.88" width="10.8" height="3.62"/></g><g class="cls-10"><rect class="cls-1" x="123.49" y="93.09" width="7.45" height="3.62"/></g><g class="cls-10"><rect class="cls-1" x="112.53" y="102.73" width="7.82" height="3.62"/></g><g class="cls-9"><rect class="cls-1" x="107.89" y="112.94" width="8.7" height="3.62"/></g><g class="cls-10"><rect class="cls-1" x="115.89" y="122.58" width="14.94" height="3.62"/></g><rect class="cls-1" x="182.42" y="163.14" width="3.38" height="3.62"/><g class="cls-10"><rect class="cls-1" x="121.16" y="241.9" width="5.11" height="3.62"/></g><rect class="cls-1" x="179.57" y="251.54" width="21.56" height="3.62"/><rect class="cls-1" x="157.46" y="172.78" width="18.72" height="3.62"/><g class="cls-9"><rect class="cls-1" x="120.55" y="172.78" width="15.92" height="3.62"/></g><rect class="cls-1" x="173.36" y="261.75" width="12.44" height="3.62"/><rect class="cls-1" x="149.35" y="182.99" width="24" height="3.62"/><rect class="cls-1" x="172.7" y="142.27" width="9.64" height="3.62"/><rect class="cls-1" x="197.3" y="103.22" width="4.92" height="3.62"/><rect class="cls-1" x="160.25" y="103.22" width="12.44" height="3.62"/><rect class="cls-1" x="154.13" y="103.22" width="6.12" height="3.62"/><rect class="cls-1" x="175.54" y="113.43" width="3.38" height="3.62"/><rect class="cls-1" x="194.26" y="123.07" width="7.96" height="3.62"/><rect class="cls-1" x="169.29" y="123.07" width="3.4" height="3.62"/><rect class="cls-1" x="191.27" y="133.28" width="10.95" height="3.62"/><rect class="cls-1" x="179.58" y="142.27" width="9.64" height="3.62"/><rect class="cls-1" x="142.6" y="142.27" width="15.48" height="3.62"/><rect class="cls-1" x="177.73" y="103.22" width="6.12" height="3.62"/><rect class="cls-1" x="182.42" y="113.43" width="3.38" height="3.62"/><rect class="cls-1" x="157.46" y="123.07" width="18.72" height="3.62"/><rect class="cls-1" x="149.35" y="133.28" width="24" height="3.62"/><g class="cls-9"><rect class="cls-1" x="134.13" y="182.99" width="6.88" height="3.62"/></g><rect class="cls-1" x="142.35" y="11.61" width="61.32" height="3.62"/><polygon class="cls-1" points="188.16 307.03 188.16 307.03 188.09 307.03 188.09 307.03 188.16 307.03"/></g><path class="cls-11" d="M145,165.13c.64-7,1.23-14.05,1.94-21.07,1-9.7,2-19.39,3.11-29.07s2.3-19.35,3.56-29c1.9-14.54,3.93-29,7.63-43.28a15.28,15.28,0,0,1,9.34-10.88,166.52,166.52,0,0,1,25.9-8.43c3-.78,6.08-1.44,9.52-2.25a103.79,103.79,0,0,0-3.62,15.42c-2,11.33-3.7,22.71-5.27,34.11q-2.16,15.72-4.23,31.45c-1.24,9.57-2.41,19.15-3.57,28.74-1.25,10.32-2.5,20.64-3.67,31-1.14,10.05-2.18,20.11-3.27,30.17-1.27,9.38-2.07,18.82-3,28.24-.73,7.11-1.45,14.22-2,21.34-.51,6.2-1.23,12.4-1.17,18.62,0,4.27-.22,8.52-.48,12.78-.39,6.2-.67,12.42-1,18.62a22.32,22.32,0,0,0-.37,4.12l-.13,0,.12,0-.14,3.27a4.4,4.4,0,0,0-.25,2.88l-.07,2.85-.47,5.69c-8,.2-15.91.17-23.86,0l-2.4-6.55-2.42-12.37q-.59-5.81-1.18-11.62c-.53-5.35-.88-10.72-1.29-16.08a212.83,212.83,0,0,1-.73-25.32c.51-11.87.67-23.75,1.41-35.61.39-6.3.5-12.62.85-18.92S144.57,171.42,145,165.13Z" transform="translate(-5.44 -9.6)"/><rect class="cls-2" x="25.08" y="6.68" width="93.76" height="293.5"/><rect class="cls-2" x="49.06" y="10.91" width="62.09" height="14.13"/><path class="cls-2" d="M54.33,66.33v4.14A3.51,3.51,0,0,0,57.84,74h66.43v8.83H57.84a3.51,3.51,0,0,0-3.51,3.51v4.14A3.52,3.52,0,0,0,57.84,94h66.43v8.82H57.84a3.52,3.52,0,0,0-3.51,3.51v4.14a3.52,3.52,0,0,0,3.51,3.51h66.43v8.82H57.84a3.52,3.52,0,0,0-3.51,3.51v4.14a3.52,3.52,0,0,0,3.51,3.51h66.43v8.82H57.84a3.52,3.52,0,0,0-3.51,3.51v4.14a3.52,3.52,0,0,0,3.51,3.51h66.43v8.82H57.84a3.52,3.52,0,0,0-3.51,3.51v4.14a3.52,3.52,0,0,0,3.51,3.51h66.43v8.82H57.84a3.52,3.52,0,0,0-3.51,3.51v4.14a3.52,3.52,0,0,0,3.51,3.51h66.43v8.82H57.84a3.52,3.52,0,0,0-3.51,3.51v4.14a3.51,3.51,0,0,0,3.51,3.51h66.43v8.83H57.84a3.51,3.51,0,0,0-3.51,3.5v4.14a3.51,3.51,0,0,0,3.51,3.51h66.43v8.83H57.84a3.51,3.51,0,0,0-3.51,3.51v4.14a3.51,3.51,0,0,0,3.51,3.5h66.43v8.83H57.84a3.51,3.51,0,0,0-3.51,3.51v4.14a3.52,3.52,0,0,0,3.51,3.51h66.43v8.82H57.84a3.52,3.52,0,0,0-3.51,3.51v4.14a3.52,3.52,0,0,0,3.51,3.51h66.43v8.82H49.41A3.52,3.52,0,0,1,45.9,299V38.25a3.52,3.52,0,0,1,3.51-3.51h1.41a3.52,3.52,0,0,1,3.51,3.51V50.47A3.51,3.51,0,0,0,57.84,54h66.43v8.83H57.84A3.51,3.51,0,0,0,54.33,66.33Z" transform="translate(-5.44 -9.6)"/><text class="cls-13" transform="translate(61.31 21.91)">NOV<tspan class="cls-14" x="18.36" y="0">O</tspan><tspan class="cls-15" x="24.76" y="0">TEL</tspan></text><rect class="cls-16" x="27.59" width="4.5" height="8.62"/><rect class="cls-16" x="35.24" width="4.5" height="8.62"/><rect class="cls-16" x="42.9" width="4.5" height="8.62"/><rect class="cls-16" x="50.56" width="4.5" height="8.62"/><rect class="cls-16" x="58.22" width="4.5" height="8.62"/><rect class="cls-16" x="65.87" width="4.5" height="8.62"/><rect class="cls-16" x="73.53" width="4.5" height="8.62"/><rect class="cls-16" x="81.19" width="4.5" height="8.62"/><rect class="cls-16" x="88.85" width="4.5" height="8.62"/><rect class="cls-16" x="96.5" width="4.5" height="8.62"/><rect class="cls-16" x="104.16" width="4.5" height="8.62"/><rect class="cls-16" x="111.82" width="4.5" height="8.62"/><line class="cls-17" y1="301" x2="686.27" y2="301"/><line class="cls-17" x1="7.45" y1="319.79" x2="92.89" y2="319.79"/><line class="cls-17" x1="117.82" y1="319.79" x2="159.17" y2="319.79"/><line class="cls-17" x1="186.05" y1="319.79" x2="238.28" y2="319.79"/><line class="cls-17" x1="257.1" y1="319.79" x2="309.33" y2="319.79"/><line class="cls-17" x1="328.15" y1="319.79" x2="380.38" y2="319.79"/><line class="cls-17" x1="399.2" y1="319.79" x2="451.43" y2="319.79"/><line class="cls-17" x1="470.25" y1="319.79" x2="522.48" y2="319.79"/><line class="cls-17" x1="541.3" y1="319.79" x2="593.53" y2="319.79"/><line class="cls-17" x1="612.35" y1="319.79" x2="664.58" y2="319.79"/><path class="cls-11" d="M348.3,48.54s3.63-10.85,24.14-6.07" transform="translate(-5.44 -9.6)"/><path class="cls-11" d="M347.8,49.49s5.29-10.55,25-4.41" transform="translate(-5.44 -9.6)"/><path class="cls-11" d="M347.54,50.39s7.53-9.94,25.65-2" transform="translate(-5.44 -9.6)"/><path class="cls-11" d="M346.59,51.26s9.37-9.24,25.83.15" transform="translate(-5.44 -9.6)"/><path class="cls-11" d="M347.81,49.56s-3.12-10.85-20.76-6.07" transform="translate(-5.44 -9.6)"/><path class="cls-11" d="M348.24,50.51S343.7,40,326.79,46.1" transform="translate(-5.44 -9.6)"/><path class="cls-11" d="M348.46,51.41s-6.47-9.94-22.06-2" transform="translate(-5.44 -9.6)"/><path class="cls-11" d="M349.29,52.27s-8.05-9.24-22.21.15" transform="translate(-5.44 -9.6)"/><g class="cls-18"><polygon class="cls-19" points="428.15 234.96 435.38 232.85 340.78 89.81 333.55 91.92 428.15 234.96"/></g><g class="cls-18"><polygon class="cls-19" points="278.37 232.82 268.1 232.13 341.41 88.59 348.83 90.36 278.37 232.82"/></g><polygon class="cls-19" points="296.02 242.18 289.33 241 337.13 97.44 343.81 98.61 296.02 242.18"/><polygon class="cls-19" points="409.01 239.57 415.5 237.94 347.86 98.08 341.37 99.71 409.01 239.57"/><line class="cls-1" x1="338" y1="51.2" x2="30.76" y2="236.71"/><line class="cls-1" x1="338" y1="54.45" x2="53.22" y2="235.68"/><line class="cls-1" x1="338" y1="60.29" x2="77.34" y2="235.68"/><line class="cls-1" x1="338" y1="63.54" x2="100.29" y2="235.68"/><line class="cls-1" x1="338" y1="66.79" x2="124.02" y2="238.93"/><line class="cls-1" x1="338" y1="70.04" x2="144.25" y2="242.18"/><line class="cls-1" x1="338" y1="73.93" x2="161.37" y2="238.93"/><polyline class="cls-1" points="339.29 78.27 338.01 79.55 174.07 243.91"/><line class="cls-1" x1="186.79" y1="238.93" x2="341.37" y2="82.59"/><line class="cls-1" x1="341.37" y1="86.06" x2="201.83" y2="235.68"/><line class="cls-1" x1="341.37" y1="89.09" x2="216.23" y2="235.68"/><line class="cls-1" x1="341.37" y1="92.12" x2="222.58" y2="238.93"/><line class="cls-1" x1="349.67" y1="51.2" x2="662.46" y2="238.93"/><line class="cls-1" x1="349.67" y1="54.45" x2="634.45" y2="235.68"/><line class="cls-1" x1="349.67" y1="60.29" x2="610.33" y2="235.68"/><line class="cls-1" x1="349.67" y1="63.54" x2="587.38" y2="235.68"/><line class="cls-1" x1="349.67" y1="66.79" x2="563.64" y2="238.93"/><line class="cls-1" x1="349.67" y1="70.04" x2="543.41" y2="242.18"/><line class="cls-1" x1="349.67" y1="73.93" x2="526.29" y2="238.93"/><polyline class="cls-1" points="348.55 77.31 349.83 78.58 513.77 242.95"/><line class="cls-1" x1="503.14" y1="238.93" x2="348.55" y2="82.59"/><line class="cls-1" x1="346.29" y1="86.06" x2="485.83" y2="235.68"/><line class="cls-1" x1="346.29" y1="89.09" x2="471.44" y2="235.68"/><line class="cls-1" x1="346.29" y1="92.12" x2="465.08" y2="238.93"/><rect class="cls-20" x="346.29" y="35.96"/><rect class="cls-2" x="334.11" y="46.42" width="17.3" height="55.77"/><path class="cls-2" d="M344.5,55.19V41.92s3.1-5.24,7.39,0V55.19Z" transform="translate(-5.44 -9.6)"/><rect class="cls-2" x="30.76" y="236.71" width="633.28" height="7.03"/><rect class="cls-2" x="30.76" y="231.75" width="633.28" height="4.96"/><rect class="cls-2" x="290.57" y="243.77" width="102.06" height="15.97"/><ellipse class="cls-2" cx="298.42" cy="251.76" rx="2.77" ry="2.69"/><ellipse class="cls-2" cx="386.08" cy="251.76" rx="2.77" ry="2.69"/><ellipse class="cls-2" cx="371.47" cy="251.76" rx="2.77" ry="2.69"/><ellipse class="cls-2" cx="356.86" cy="251.76" rx="2.77" ry="2.69"/><ellipse class="cls-2" cx="327.64" cy="251.76" rx="2.77" ry="2.69"/><ellipse class="cls-2" cx="313.03" cy="251.76" rx="2.77" ry="2.69"/><ellipse class="cls-2" cx="342.25" cy="251.76" rx="2.77" ry="2.69"/><polygon class="cls-2" points="290.57 260.92 290.57 268.9 300.03 276.89 300.03 300.23 383.31 300.23 383.18 276.89 392.64 268.9 392.64 260.92 290.57 260.92"/><line class="cls-1" x1="477.58" y1="43.4" x2="477.58" y2="8.78"/><line class="cls-1" x1="483.02" y1="35.9" x2="491.65" y2="14.83"/><line class="cls-1" x1="478.6" y1="48.19" x2="498.35" y2="26.01"/><line class="cls-1" x1="484.98" y1="45.24" x2="509" y2="32.1"/><line class="cls-1" x1="482.35" y1="48.82" x2="500.09" y2="45.69"/><line class="cls-1" x1="502.15" y1="45.47" x2="505.52" y2="44.92"/><line class="cls-1" x1="487.37" y1="51.34" x2="510.63" y2="55.91"/><line class="cls-1" x1="478.45" y1="49.93" x2="504.65" y2="65.58"/><line class="cls-1" x1="483.56" y1="57.32" x2="500.2" y2="77.65"/><line class="cls-1" x1="479.32" y1="54.27" x2="485.95" y2="72.97"/><line class="cls-1" x1="477.58" y1="58.73" x2="477.58" y2="85.37"/><line class="cls-1" x1="475.63" y1="55.36" x2="465.84" y2="78.84"/><line class="cls-1" x1="476.71" y1="50.03" x2="457.47" y2="71.23"/><line class="cls-1" x1="456.71" y1="72.43" x2="453.34" y2="76.13"/><line class="cls-1" x1="469.54" y1="53.62" x2="447.25" y2="65.69"/><line class="cls-1" x1="473.23" y1="49.71" x2="453.77" y2="52.53"/><line class="cls-1" x1="452.14" y1="52.86" x2="448.77" y2="53.3"/><line class="cls-1" x1="468.67" y1="47.32" x2="442.25" y2="42.1"/><line class="cls-1" x1="468.45" y1="43.51" x2="451.6" y2="33.29"/><line class="cls-1" x1="475.95" y1="47.1" x2="454.97" y2="21.66"/><line class="cls-1" x1="474.32" y1="39.71" x2="468.99" y2="24.92"/><line class="cls-1" x1="468.23" y1="23.29" x2="465.84" y2="17.31"/><line class="cls-1" x1="499.87" y1="24.27" x2="503.24" y2="20.57"/><circle class="cls-1" cx="495.49" cy="11.29" r="1.86"/><circle class="cls-1" cx="509" cy="44.92" r="1.86"/><circle class="cls-1" cx="443.79" cy="53.78" r="1.2"/><circle class="cls-1" cx="487.37" cy="76.13" r="1.2"/><circle class="cls-1" cx="463.5" cy="13.28" r="1.86"/><circle class="cls-1" cx="450.46" cy="79.06" r="1.86"/><g class="cls-21"><line class="cls-1" x1="524.2" y1="87.64" x2="524.2" y2="66.48"/><line class="cls-1" x1="527.52" y1="83.05" x2="532.8" y2="70.17"/><line class="cls-1" x1="524.82" y1="90.56" x2="536.89" y2="77.01"/><line class="cls-1" x1="528.72" y1="88.76" x2="543.4" y2="80.73"/><line class="cls-1" x1="527.11" y1="90.95" x2="537.95" y2="89.03"/><line class="cls-1" x1="539.21" y1="88.9" x2="541.27" y2="88.57"/><line class="cls-1" x1="530.18" y1="92.49" x2="544.4" y2="95.28"/><line class="cls-1" x1="524.73" y1="91.63" x2="540.74" y2="101.19"/><line class="cls-1" x1="527.85" y1="96.14" x2="538.02" y2="108.57"/><line class="cls-1" x1="525.26" y1="94.28" x2="529.31" y2="105.71"/><line class="cls-1" x1="524.2" y1="97.01" x2="524.2" y2="113.29"/><line class="cls-1" x1="523" y1="94.95" x2="517.02" y2="109.3"/><line class="cls-1" x1="523.66" y1="91.69" x2="511.9" y2="104.65"/><line class="cls-1" x1="511.44" y1="105.38" x2="509.38" y2="107.64"/><line class="cls-1" x1="519.28" y1="93.89" x2="505.66" y2="101.26"/><line class="cls-1" x1="521.54" y1="91.49" x2="509.64" y2="93.22"/><line class="cls-1" x1="508.65" y1="93.42" x2="506.59" y2="93.69"/><line class="cls-1" x1="518.75" y1="90.03" x2="502.6" y2="86.84"/><line class="cls-1" x1="518.61" y1="87.71" x2="508.31" y2="81.46"/><line class="cls-1" x1="523.2" y1="89.9" x2="510.37" y2="74.35"/><line class="cls-1" x1="522.2" y1="85.38" x2="518.95" y2="76.34"/><line class="cls-1" x1="518.48" y1="75.35" x2="517.02" y2="71.69"/><line class="cls-1" x1="537.82" y1="75.94" x2="539.88" y2="73.69"/><circle class="cls-1" cx="535.14" cy="68.01" r="1.13"/><circle class="cls-1" cx="543.4" cy="88.57" r="1.13"/><circle class="cls-1" cx="503.54" cy="93.98" r="0.73"/><circle class="cls-1" cx="530.18" cy="107.64" r="0.73"/><circle class="cls-1" cx="515.59" cy="69.23" r="1.13"/><circle class="cls-1" cx="507.62" cy="109.44" r="1.13"/></g></svg>