<svg id="Layer_1" data-name="Layer 1" xmlns="http://www.w3.org/2000/svg" viewBox="0 0 694 345"><defs><style>.cls-1,.cls-3{fill:#fff;}.cls-1,.cls-2,.cls-3{stroke:#647eb2;stroke-miterlimit:10;}.cls-1{stroke-width:3px;}.cls-2{fill:none;}.cls-2,.cls-3{stroke-width:2px;}</style></defs><title>Route 3 - Museum</title><polyline class="cls-1" points="97.64 118.84 97.64 305.44 579.61 305.44 579.61 118.84"/><polyline class="cls-1" points="97.64 163.83 525.86 163.83 579.61 163.83"/><line class="cls-1" x1="525.86" y1="305.44" x2="525.86" y2="163.83"/><line class="cls-1" x1="509.17" y1="305.44" x2="509.17" y2="163.83"/><line class="cls-1" x1="426.37" y1="163.83" x2="426.37" y2="305.44"/><line class="cls-1" x1="150.78" y1="163.83" x2="150.78" y2="305.44"/><line class="cls-1" x1="250.47" y1="163.83" x2="250.47" y2="305.44"/><line class="cls-1" x1="266.95" y1="163.83" x2="266.95" y2="305.44"/><line class="cls-1" x1="410.31" y1="163.83" x2="410.31" y2="305.44"/><line class="cls-1" x1="97.64" y1="236.89" x2="150.78" y2="236.89"/><polyline class="cls-1" points="168.09 163.83 168.09 236.89 168.09 305.44"/><line class="cls-1" x1="266.95" y1="236.89" x2="410.31" y2="236.89"/><polyline class="cls-1" points="426.37 236.9 509.17 236.9 525.86 236.9 579.61 236.9"/><polyline class="cls-1" points="97.64 135.51 283.84 135.51 338.63 96 393.42 135.51 576.73 135.51"/><path class="cls-1" d="M119.06,185.49v34.75H103.41V186s7.83-11.69,15.65.71"/><path class="cls-1" d="M141.52,185.24V220H125.86V185.72s7.83-11.69,15.65.71"/><path class="cls-1" d="M120.82,256.41v34.75H105.16V256.89s7.83-11.69,15.65.71"/><path class="cls-1" d="M143.27,256.17v34.75H127.61V256.64s7.83-11.69,15.65.71"/><path class="cls-1" d="M550.57,185.61v34.75H534.92V186.08s7.83-11.69,15.65.71"/><path class="cls-1" d="M573,185.37v34.75H557.37V185.84s7.83-11.69,15.65.71"/><path class="cls-1" d="M550.57,256.53v34.75H534.92V257s7.83-11.69,15.65.71"/><path class="cls-1" d="M573,256.29V291H557.37V256.76s7.83-11.69,15.65.71"/><path class="cls-1" d="M295.37,185.73v34.75H279.72V186.2s7.83-11.69,15.65.71"/><path class="cls-1" d="M307.12,272.8v30.86H281.37V273.22s12.87-10.38,25.75.63"/><path class="cls-1" d="M351.5,263v40.66H325.76v-40.1s12.87-13.68,25.75.84"/><path class="cls-1" d="M397,272.8v30.86H371.27V273.22s12.87-10.38,25.75.63"/><path class="cls-1" d="M399.8,185.24V220H384.15V185.72s7.83-11.69,15.65.71"/><path class="cls-1" d="M240.07,187v34.75H224.42V187.51s7.83-11.69,15.65.71"/><path class="cls-1" d="M195.89,187v34.75H180.24V187.51s7.83-11.69,15.65.71"/><path class="cls-1" d="M218,187v34.75H202.33V187.51s7.83-11.69,15.65.71"/><path class="cls-1" d="M240.07,256.29V291H224.42V256.76s7.83-11.69,15.65.71"/><path class="cls-1" d="M195.89,256.29V291H180.24V256.76s7.83-11.69,15.65.71"/><path class="cls-1" d="M218,256.29V291H202.33V256.76s7.83-11.69,15.65.71"/><path class="cls-1" d="M497.69,256.29V291H482V256.76s7.83-11.69,15.65.71"/><path class="cls-1" d="M453.51,256.29V291H437.85V256.76s7.83-11.69,15.65.71"/><path class="cls-1" d="M475.6,256.29V291H459.94V256.76s7.83-11.69,15.65.71"/><path class="cls-1" d="M500.11,185.73v34.75H484.46V186.2s7.83-11.69,15.65.71"/><path class="cls-1" d="M455.93,185.73v34.75H440.27V186.2s7.83-11.69,15.65.71"/><path class="cls-1" d="M478,185.73v34.75H462.37V186.2s7.83-11.69,15.65.71"/><line class="cls-1" x1="127.61" y1="118.85" x2="127.61" y2="135.51"/><line class="cls-1" x1="158.2" y1="118.85" x2="158.2" y2="135.51"/><line class="cls-1" x1="188.06" y1="118.85" x2="188.06" y2="137.89"/><line class="cls-1" x1="217.98" y1="118.85" x2="217.98" y2="137.89"/><line class="cls-1" x1="250.47" y1="118.85" x2="250.47" y2="137.89"/><line class="cls-1" x1="426.37" y1="118.85" x2="426.37" y2="137.89"/><line class="cls-1" x1="455.93" y1="118.85" x2="455.93" y2="137.89"/><line class="cls-1" x1="487.75" y1="118.85" x2="487.75" y2="137.89"/><line class="cls-1" x1="517.41" y1="118.85" x2="517.41" y2="137.89"/><line class="cls-1" x1="548.31" y1="118.85" x2="548.31" y2="137.89"/><line class="cls-1" x1="304.03" y1="163.83" x2="304.03" y2="236.89"/><line class="cls-1" x1="320.09" y1="163.83" x2="320.09" y2="236.89"/><line class="cls-1" x1="354.08" y1="163.83" x2="354.08" y2="239.51"/><line class="cls-1" x1="371.27" y1="163.83" x2="371.27" y2="239.51"/><line class="cls-2" x1="616.78" y1="325.87" x2="669.6" y2="325.87"/><g id="_Group_" data-name="&lt;Group&gt;"><path id="_Path_" data-name="&lt;Path&gt;" class="cls-2" d="M403.86,54.71a23,23,0,0,1-43.33,0"/><path id="_Path_2" data-name="&lt;Path&gt;" class="cls-2" d="M360.75,38.55A23,23,0,0,1,403.4,38"/><circle id="_Path_3" data-name="&lt;Path&gt;" class="cls-2" cx="382.2" cy="46.93" r="16.23"/></g><g id="_Group_2" data-name="&lt;Group&gt;"><line id="_Path_4" data-name="&lt;Path&gt;" class="cls-2" x1="248.69" y1="46.78" x2="186.33" y2="46.78"/><line id="_Path_5" data-name="&lt;Path&gt;" class="cls-2" x1="229.53" y1="54.3" x2="196.87" y2="54.3"/><line id="_Path_6" data-name="&lt;Path&gt;" class="cls-2" x1="179.67" y1="54.3" x2="168.12" y2="54.3"/><line id="_Path_7" data-name="&lt;Path&gt;" class="cls-2" x1="220.5" y1="39.56" x2="208.96" y2="39.56"/></g><g id="_Group_3" data-name="&lt;Group&gt;"><line id="_Path_8" data-name="&lt;Path&gt;" class="cls-2" x1="534.64" y1="88.49" x2="472.29" y2="88.49"/><line id="_Path_9" data-name="&lt;Path&gt;" class="cls-2" x1="515.49" y1="96" x2="482.82" y2="96"/><line id="_Path_10" data-name="&lt;Path&gt;" class="cls-2" x1="465.62" y1="96" x2="454.08" y2="96"/><line id="_Path_11" data-name="&lt;Path&gt;" class="cls-2" x1="506.46" y1="81.26" x2="494.91" y2="81.26"/></g><line class="cls-2" y1="306.84" x2="694" y2="306.84"/><line class="cls-2" x1="7.53" y1="325.84" x2="93.94" y2="325.84"/><line class="cls-2" x1="119.15" y1="325.84" x2="160.96" y2="325.84"/><line class="cls-2" x1="188.15" y1="325.84" x2="240.96" y2="325.84"/><line class="cls-2" x1="260" y1="325.84" x2="312.81" y2="325.84"/><line class="cls-2" x1="331.85" y1="325.84" x2="384.67" y2="325.84"/><line class="cls-2" x1="403.7" y1="325.84" x2="456.52" y2="325.84"/><line class="cls-2" x1="475.55" y1="325.84" x2="528.37" y2="325.84"/><line class="cls-2" x1="547.4" y1="325.84" x2="600.22" y2="325.84"/><line class="cls-2" x1="619.25" y1="325.84" x2="672.07" y2="325.84"/><rect class="cls-3" x="65.93" y="285.57" width="4.23" height="23.49"/><path class="cls-3" d="M84.71,248.17a16.67,16.67,0,1,0-33.34,0v24.92a16.67,16.67,0,1,0,33.34,0Z"/><rect class="cls-3" x="31.32" y="285.57" width="4.22" height="23.49"/><circle class="cls-3" cx="33.43" cy="273.08" r="16.67"/><rect class="cls-3" x="616.65" y="276.5" width="5.21" height="28.94"/><path class="cls-3" d="M639.79,230.41a20.54,20.54,0,1,0-41.08,0v30.7a20.54,20.54,0,0,0,41.08,0Z"/><rect class="cls-3" x="662.95" y="289.91" width="3.34" height="16.93"/><polygon class="cls-3" points="648.43 291.24 664.62 236.39 680.8 291.24 648.43 291.24"/></svg>